<svg width="31" height="36" viewBox="0 0 31 36" fill="none" xmlns="http://www.w3.org/2000/svg">
<g clip-path="url(#clip0_39_133)">
<path d="M14.1878 8.0296C11.1642 9.37534 5.11702 13.9044 5.11702 21.255C5.11702 28.6054 2.1977 30.6287 0.738037 30.7215H10.9035M10.9035 30.7215H14.1878M10.9035 30.7215C10.6429 32.1137 10.9348 34.8979 14.1878 34.8979" stroke="white" stroke-width="3"/>
<path d="M14.1879 8.0296C17.2115 9.37534 23.2586 13.9044 23.2586 21.255C23.2586 28.6054 26.178 30.6287 27.6377 30.7215H17.4721M17.4721 30.7215H14.1879M17.4721 30.7215C17.7328 32.1137 17.4409 34.8979 14.1879 34.8979" stroke="white" stroke-width="3"/>
<path d="M22.594 15.4415C27.2365 15.4415 31.0001 11.9848 31.0001 7.72075C31.0001 3.4567 27.2365 0 22.594 0C17.9514 0 14.1879 3.4567 14.1879 7.72075C14.1879 11.9848 17.9514 15.4415 22.594 15.4415Z" fill="#FFBB37"/>
<path d="M21.3039 12.0542C20.9053 12.0542 20.4979 11.9793 20.0816 11.8294C19.6742 11.6707 19.3376 11.4767 19.0719 11.2475C18.8062 11.0095 18.6733 10.7802 18.6733 10.5598C18.6733 10.2689 18.8195 10.0308 19.1118 9.84571C19.4129 9.65175 19.8159 9.55477 20.3208 9.55477C20.5333 9.55477 20.6972 9.56358 20.8123 9.58122C20.9009 10.0044 21.0382 10.4011 21.2242 10.7714C21.8265 10.6127 22.3092 10.4011 22.6723 10.1366C23.0443 9.86334 23.3411 9.48424 23.5625 8.99934C23.2968 8.91999 23.0089 8.88032 22.6989 8.88032C22.4686 8.88032 22.1941 8.90677 21.8752 8.95967C21.8132 8.96848 21.7468 8.9773 21.6759 8.98611C21.6051 8.99493 21.5342 8.99934 21.4633 8.99934C21.3748 8.99934 21.3128 8.99052 21.2773 8.97289C21.0825 8.87591 20.9053 8.69958 20.7459 8.44391C20.5953 8.18824 20.5201 7.93256 20.5201 7.67689C20.5201 7.54464 20.5998 7.43003 20.7592 7.33303C20.9186 7.23605 21.1755 7.11262 21.5298 6.96275C22.1409 6.71589 22.6502 6.4514 23.0576 6.16928C23.4739 5.88715 23.7795 5.49483 23.9743 4.9923C23.4783 5.03638 23.0089 5.15981 22.5661 5.36258C22.1232 5.56536 21.6803 5.83866 21.2375 6.1825C20.8921 6.11197 20.6175 5.9665 20.4138 5.74609C20.2189 5.52568 20.1215 5.28324 20.1215 5.01875C20.1215 4.70136 20.2853 4.40601 20.6131 4.1327C20.9496 3.85058 21.3836 3.63017 21.9151 3.47148C22.4553 3.30397 23.0133 3.22021 23.5891 3.22021C23.9079 3.22021 24.2312 3.32601 24.5589 3.5376C24.8955 3.74919 25.1701 4.00487 25.3826 4.30462C25.6041 4.60438 25.7148 4.87328 25.7148 5.11132C25.7148 5.62266 25.4623 6.10315 24.9575 6.55279C24.4526 7.00242 23.7529 7.36832 22.8583 7.65044L22.9115 7.79591C23.4075 7.77828 23.8636 7.83558 24.2799 7.96783C24.7051 8.10007 25.0416 8.27199 25.2896 8.48358C25.5376 8.69518 25.6616 8.89354 25.6616 9.07869C25.6616 9.56358 25.4358 10.0397 24.9841 10.5069C24.5412 10.9654 23.9788 11.3401 23.2968 11.631C22.6148 11.9131 21.9505 12.0542 21.3039 12.0542Z" fill="black"/>
</g>
<defs>
<clipPath id="clip0_39_133">
<rect width="31" height="36" fill="white"/>
</clipPath>
</defs>
</svg>
