<svg width="37" height="28" viewBox="0 0 37 28" fill="none" xmlns="http://www.w3.org/2000/svg">
<path d="M24 14L37 14" stroke="black"/>
<path d="M24 11L37 11" stroke="black"/>
<path d="M22 17L37 17" stroke="black"/>
<path d="M25 20L37 20" stroke="black"/>
<path d="M20 8L37 8" stroke="black"/>
<path d="M8.15569 8.5H8.15572C8.15533 8.5 8.15523 8.5 8.15586 8.5L8.15589 8.5L8.15716 8.5L8.16016 8.5L8.17432 8.5L8.25 8.5L8.43359 8.5L8.45844 8.5H8.46443H8.46533H8.46556H8.46559H8.46566L8.46875 8.5L11.5 8.5C12.972 8.5 14.1849 9.54417 15.1869 11.366C16.1814 13.1742 16.8882 15.6153 17.3847 18.0981C17.8797 20.5729 18.1589 23.0525 18.3142 24.9165C18.3918 25.8477 18.4384 26.6234 18.4655 27.1656C18.4717 27.2896 18.4769 27.4014 18.4812 27.5H0.532637C0.783049 23.5947 1.16333 18.8943 2.04931 15.1141C2.51335 13.1342 3.10692 11.4494 3.86573 10.2706C4.62152 9.0966 5.48674 8.5 6.5 8.5L8.15569 8.5Z" fill="#FFBB37" stroke="black"/>
<circle cx="9" cy="5" r="4.5" fill="#FFBB37" stroke="black"/>
<path d="M5 27V18" stroke="black"/>
<path d="M14 27V18" stroke="black"/>
</svg>
