<svg width="15" height="22" viewBox="0 0 15 22" fill="none" xmlns="http://www.w3.org/2000/svg">
<path d="M6.04379 6.65998H6.04387L6.0439 6.65998L6.04392 6.65998L6.04489 6.65998L6.04711 6.65998L6.0576 6.65998L6.11368 6.65998L6.22947 6.65998L6.24974 6.65998H6.26815H6.27259H6.27325H6.27343H6.27344H6.27351L6.27579 6.65998L8.52211 6.65998C9.5238 6.65998 10.3916 7.42046 11.1344 8.86377C11.8653 10.2841 12.3873 12.2077 12.7548 14.1719C13.1209 16.1282 13.3276 18.0891 13.4426 19.5638C13.5 20.3004 13.5344 20.9139 13.5545 21.3427C13.5571 21.3983 13.5595 21.4508 13.5616 21.5H0.530589C0.71626 18.4287 0.998842 14.7634 1.64629 11.8111C1.98964 10.2454 2.42715 8.92222 2.98146 8.00196C3.53627 7.08087 4.14348 6.65998 4.81684 6.65998L6.04379 6.65998Z" fill="#FFBB37" stroke="black"/>
<circle cx="6.59989" cy="3.96" r="3.46" fill="#FFBB37" stroke="black"/>
<path d="M3.52002 21.12V14.08" stroke="black"/>
<path d="M10.5601 21.12V14.08" stroke="black"/>
</svg>
