<svg width="766" height="294" viewBox="0 0 766 294" fill="none" xmlns="http://www.w3.org/2000/svg">
<path d="M35.8542 0.647092C35.6593 0.451474 35.3427 0.450897 35.1471 0.645802L31.9593 3.82197C31.7637 4.01688 31.7631 4.33346 31.958 4.52908C32.1529 4.72469 32.4695 4.72527 32.6651 4.53037L35.4987 1.70711L38.322 4.54069C38.5169 4.73631 38.8335 4.73689 39.0291 4.54198C39.2247 4.34707 39.2253 4.03049 39.0304 3.83487L35.8542 0.647092ZM35 0.999088L34.5018 273.999L35.5018 274.001L36 1.00091L35 0.999088Z" fill="white"/>
<path d="M35 274H747" stroke="white"/>
<line x1="30.0011" y1="247.5" x2="40.0011" y2="247.522" stroke="white"/>
<line x1="40" y1="247.5" x2="748" y2="247.5" stroke="#53535D"/>
<line x1="40" y1="227.5" x2="748" y2="227.5" stroke="#53535D"/>
<line x1="40" y1="207.5" x2="748" y2="207.5" stroke="#53535D"/>
<line x1="40" y1="187.5" x2="748" y2="187.5" stroke="#53535D"/>
<line x1="40" y1="167.5" x2="748" y2="167.5" stroke="#53535D"/>
<line x1="40" y1="147.5" x2="748" y2="147.5" stroke="#53535D"/>
<line x1="40" y1="127.5" x2="748" y2="127.5" stroke="#53535D"/>
<line x1="40" y1="107.5" x2="748" y2="107.5" stroke="#53535D"/>
<line x1="40" y1="87.5" x2="748" y2="87.5" stroke="#53535D"/>
<line x1="40" y1="67.5" x2="748" y2="67.5" stroke="#53535D"/>
<line x1="40" y1="47.5" x2="748" y2="47.5" stroke="#53535D"/>
<line x1="39" y1="27.5" x2="748" y2="27.5" stroke="#53535D"/>
<line x1="313.5" y1="280" x2="313.5" y2="270" stroke="white"/>
<line x1="437.5" y1="280" x2="437.5" y2="270" stroke="white"/>
<line x1="561.5" y1="280" x2="561.5" y2="270" stroke="white"/>
<line x1="685.5" y1="280" x2="685.5" y2="270" stroke="white"/>
<line x1="189.5" y1="280" x2="189.5" y2="270" stroke="white"/>
<line x1="375.5" y1="280" x2="375.5" y2="270" stroke="white"/>
<line x1="499.5" y1="280" x2="499.5" y2="270" stroke="white"/>
<line x1="623.5" y1="280" x2="623.5" y2="270" stroke="white"/>
<line x1="747.5" y1="280" x2="747.5" y2="270" stroke="white"/>
<line x1="251.5" y1="280" x2="251.5" y2="270" stroke="white"/>
<line x1="65.5" y1="280" x2="65.5" y2="270" stroke="white"/>
<line x1="65.5" y1="270" x2="65.5" y2="1" stroke="#53535D"/>
<line x1="127.5" y1="270" x2="127.5" y2="1" stroke="#53535D"/>
<line x1="189.5" y1="270" x2="189.5" y2="1" stroke="#53535D"/>
<line x1="251.5" y1="270" x2="251.5" y2="1" stroke="#53535D"/>
<line x1="313.5" y1="270" x2="313.5" y2="1" stroke="#53535D"/>
<line x1="375.5" y1="270" x2="375.5" y2="1" stroke="#53535D"/>
<line x1="437.5" y1="270" x2="437.5" y2="1" stroke="#53535D"/>
<line x1="499.5" y1="270" x2="499.5" y2="1" stroke="#53535D"/>
<line x1="561.5" y1="270" x2="561.5" y2="1" stroke="#53535D"/>
<line x1="623.5" y1="270" x2="623.5" y2="1" stroke="#53535D"/>
<line x1="685.5" y1="270" x2="685.5" y2="1" stroke="#53535D"/>
<line x1="747.5" y1="270" x2="747.5" y2="1" stroke="#53535D"/>
<line x1="127.5" y1="280" x2="127.5" y2="270" stroke="white"/>
<line x1="30.0011" y1="187.5" x2="40.0011" y2="187.522" stroke="white"/>
<line x1="30.0011" y1="127.5" x2="40.0011" y2="127.522" stroke="white"/>
<line x1="30.0011" y1="67.5" x2="40.0011" y2="67.5223" stroke="white"/>
<line x1="30.0011" y1="207.5" x2="40.0011" y2="207.522" stroke="white"/>
<line x1="30.0011" y1="147.5" x2="40.0011" y2="147.522" stroke="white"/>
<line x1="30.0011" y1="87.5" x2="40.0011" y2="87.5223" stroke="white"/>
<line x1="30.0011" y1="27.5" x2="40.0011" y2="27.5223" stroke="white"/>
<line x1="30.0011" y1="227.5" x2="40.0011" y2="227.522" stroke="white"/>
<line x1="30.0011" y1="167.5" x2="40.0011" y2="167.522" stroke="white"/>
<line x1="30.0011" y1="107.5" x2="40.0011" y2="107.522" stroke="white"/>
<line x1="30.0011" y1="47.5" x2="40.0011" y2="47.5223" stroke="white"/>
<path d="M57.757 288.074C57.113 288.032 56.609 287.808 56.231 287.43C55.853 287.052 55.657 286.562 55.657 285.932C55.657 285.61 55.713 285.316 55.811 285.05C55.909 284.784 56.063 284.56 56.245 284.378C56.427 284.196 56.665 284.042 56.931 283.93C57.197 283.832 57.505 283.776 57.841 283.776H61.341V291H60.459V288.13H58.751L56.273 291H55.125L57.757 288.074ZM58.051 284.518C57.561 284.518 57.197 284.644 56.931 284.91C56.665 285.176 56.539 285.526 56.539 285.946C56.539 286.366 56.665 286.716 56.931 286.982C57.197 287.248 57.561 287.388 58.051 287.388H60.459V284.518H58.051ZM63.873 286.842H67.975V283.776H68.857V291H67.975V287.584H63.873V291H62.991V283.776H63.873V286.842ZM73.8146 283.776C74.5566 283.776 75.1166 283.916 75.5226 284.21C75.9286 284.504 76.1246 284.924 76.1246 285.484C76.1246 285.918 76.0126 286.268 75.8026 286.562C75.5786 286.856 75.2706 287.052 74.8786 287.164V287.192C75.3546 287.276 75.7326 287.458 75.9986 287.752C76.2646 288.046 76.4046 288.452 76.4046 288.984C76.4046 289.642 76.1806 290.132 75.7466 290.482C75.3126 290.832 74.6686 291 73.8146 291H70.5106V283.776H73.8146ZM73.7166 286.898C74.2206 286.898 74.5986 286.786 74.8646 286.576C75.1166 286.366 75.2426 286.072 75.2426 285.708C75.2426 284.91 74.7386 284.518 73.7166 284.518H71.3926V286.898H73.7166ZM73.7166 290.258C74.3326 290.258 74.7946 290.146 75.0886 289.908C75.3826 289.684 75.5226 289.348 75.5226 288.886C75.5226 288.466 75.3826 288.144 75.0886 287.92C74.7946 287.696 74.3326 287.584 73.7166 287.584H71.3926V290.258H73.7166Z" fill="white"/>
<path d="M9.9007 244.076C10.2787 244.048 10.6147 244.006 10.9227 243.964C11.2167 243.922 11.4827 243.824 11.7207 243.698C11.9447 243.572 12.1407 243.376 12.2947 243.124C12.4487 242.886 12.5607 242.55 12.6307 242.13H13.3447V252H12.4487V244.664H9.9007V244.076ZM19.892 242.13C20.382 242.13 20.802 242.2 21.152 242.34C21.502 242.494 21.81 242.69 22.062 242.942C22.3 243.194 22.51 243.488 22.664 243.824C22.818 244.16 22.93 244.51 23.014 244.888C23.098 245.266 23.154 245.658 23.182 246.064C23.21 246.47 23.224 246.862 23.224 247.24C23.224 247.898 23.182 248.514 23.084 249.116C22.986 249.718 22.818 250.236 22.58 250.698C22.328 251.16 21.992 251.524 21.558 251.79C21.124 252.056 20.578 252.196 19.892 252.196C19.206 252.196 18.66 252.056 18.226 251.79C17.792 251.524 17.442 251.146 17.204 250.684C16.952 250.222 16.784 249.69 16.686 249.074C16.588 248.472 16.546 247.828 16.546 247.142C16.546 246.512 16.588 245.91 16.672 245.308C16.756 244.706 16.924 244.174 17.162 243.698C17.4 243.236 17.736 242.858 18.17 242.564C18.604 242.27 19.178 242.13 19.892 242.13ZM22.328 247.142C22.328 246.61 22.3 246.092 22.244 245.574C22.174 245.07 22.062 244.622 21.88 244.216C21.698 243.81 21.46 243.488 21.138 243.25C20.816 243.012 20.382 242.886 19.864 242.886C19.374 242.886 18.968 243.012 18.66 243.25C18.338 243.502 18.1 243.838 17.918 244.244C17.736 244.65 17.624 245.126 17.554 245.644C17.484 246.162 17.442 246.694 17.442 247.24C17.442 247.87 17.484 248.444 17.568 248.962C17.638 249.48 17.778 249.928 17.96 250.292C18.142 250.656 18.394 250.936 18.716 251.132C19.024 251.342 19.416 251.44 19.892 251.44C20.424 251.44 20.858 251.314 21.18 251.048C21.502 250.782 21.74 250.446 21.908 250.04C22.076 249.634 22.188 249.172 22.244 248.654C22.3 248.136 22.328 247.632 22.328 247.142Z" fill="white"/>
<path d="M9.1867 225.364C9.1867 224.874 9.2567 224.44 9.4107 224.034C9.5647 223.642 9.7747 223.306 10.0547 223.012C10.3347 222.732 10.6707 222.508 11.0767 222.354C11.4687 222.2 11.9027 222.13 12.3927 222.13C12.8827 222.13 13.3307 222.2 13.7087 222.34C14.0867 222.494 14.3947 222.69 14.6607 222.928C14.9127 223.166 15.1087 223.46 15.2347 223.796C15.3607 224.132 15.4307 224.482 15.4307 224.86C15.4307 225.294 15.3607 225.686 15.2207 226.022C15.0667 226.358 14.8847 226.652 14.6467 226.918C14.4087 227.184 14.1287 227.408 13.8347 227.618C13.5267 227.828 13.2187 228.01 12.8967 228.192C12.5747 228.374 12.2667 228.556 11.9587 228.724C11.6507 228.892 11.3707 229.074 11.1327 229.256L10.6707 229.634C10.5167 229.774 10.3907 229.928 10.2647 230.082C10.1387 230.236 10.0407 230.418 9.9707 230.6C9.9007 230.796 9.8587 231.006 9.8447 231.244H15.3467V232H8.8927C8.9067 231.524 8.9487 231.09 9.0467 230.712C9.1447 230.334 9.3407 229.956 9.6627 229.592C10.0127 229.2 10.3627 228.864 10.7407 228.584C11.1047 228.304 11.4687 228.052 11.8187 227.828C12.1687 227.618 12.5047 227.408 12.8267 227.226C13.1487 227.044 13.4287 226.848 13.6667 226.638C13.9047 226.428 14.1007 226.176 14.2407 225.91C14.3807 225.644 14.4507 225.308 14.4507 224.916C14.4507 224.594 14.3947 224.314 14.2827 224.062C14.1707 223.81 14.0167 223.6 13.8207 223.418C13.6247 223.236 13.4007 223.11 13.1347 223.012C12.8687 222.928 12.5887 222.886 12.2807 222.886C11.9587 222.886 11.6647 222.956 11.3987 223.082C11.1327 223.222 10.8947 223.404 10.7127 223.628C10.5167 223.852 10.3627 224.118 10.2647 224.412C10.1667 224.706 10.1247 225.028 10.1387 225.364H9.1867ZM19.892 222.13C20.382 222.13 20.802 222.2 21.152 222.34C21.502 222.494 21.81 222.69 22.062 222.942C22.3 223.194 22.51 223.488 22.664 223.824C22.818 224.16 22.93 224.51 23.014 224.888C23.098 225.266 23.154 225.658 23.182 226.064C23.21 226.47 23.224 226.862 23.224 227.24C23.224 227.898 23.182 228.514 23.084 229.116C22.986 229.718 22.818 230.236 22.58 230.698C22.328 231.16 21.992 231.524 21.558 231.79C21.124 232.056 20.578 232.196 19.892 232.196C19.206 232.196 18.66 232.056 18.226 231.79C17.792 231.524 17.442 231.146 17.204 230.684C16.952 230.222 16.784 229.69 16.686 229.074C16.588 228.472 16.546 227.828 16.546 227.142C16.546 226.512 16.588 225.91 16.672 225.308C16.756 224.706 16.924 224.174 17.162 223.698C17.4 223.236 17.736 222.858 18.17 222.564C18.604 222.27 19.178 222.13 19.892 222.13ZM22.328 227.142C22.328 226.61 22.3 226.092 22.244 225.574C22.174 225.07 22.062 224.622 21.88 224.216C21.698 223.81 21.46 223.488 21.138 223.25C20.816 223.012 20.382 222.886 19.864 222.886C19.374 222.886 18.968 223.012 18.66 223.25C18.338 223.502 18.1 223.838 17.918 224.244C17.736 224.65 17.624 225.126 17.554 225.644C17.484 226.162 17.442 226.694 17.442 227.24C17.442 227.87 17.484 228.444 17.568 228.962C17.638 229.48 17.778 229.928 17.96 230.292C18.142 230.656 18.394 230.936 18.716 231.132C19.024 231.342 19.416 231.44 19.892 231.44C20.424 231.44 20.858 231.314 21.18 231.048C21.502 230.782 21.74 230.446 21.908 230.04C22.076 229.634 22.188 229.172 22.244 228.654C22.3 228.136 22.328 227.632 22.328 227.142Z" fill="white"/>
<path d="M11.3147 206.512C11.7347 206.512 12.1127 206.484 12.4627 206.428C12.8127 206.386 13.1067 206.288 13.3587 206.134C13.5967 205.994 13.7927 205.798 13.9327 205.56C14.0727 205.322 14.1427 205 14.1427 204.622C14.1427 204.314 14.0867 204.048 13.9747 203.824C13.8627 203.614 13.7087 203.432 13.5267 203.292C13.3307 203.152 13.1067 203.054 12.8547 202.984C12.5887 202.914 12.3227 202.886 12.0427 202.886C11.7207 202.886 11.4407 202.942 11.1887 203.04C10.9227 203.138 10.6987 203.292 10.5167 203.474C10.3347 203.67 10.1807 203.894 10.0827 204.146C9.9847 204.412 9.9287 204.692 9.9287 205H9.0327C9.0327 204.552 9.1167 204.146 9.2707 203.782C9.4247 203.432 9.6627 203.096 9.9847 202.788C10.2927 202.508 10.6427 202.326 11.0347 202.242C11.4127 202.172 11.8187 202.13 12.2247 202.13C12.6167 202.13 12.9807 202.172 13.3307 202.27C13.6667 202.368 13.9607 202.522 14.2127 202.718C14.4647 202.928 14.6607 203.18 14.8147 203.488C14.9687 203.796 15.0387 204.16 15.0387 204.566C15.0387 205.084 14.9267 205.518 14.7027 205.896C14.4647 206.274 14.1147 206.554 13.6387 206.764C13.9887 206.876 14.2827 207.016 14.5207 207.198C14.7447 207.38 14.9267 207.59 15.0527 207.8C15.1787 208.024 15.2767 208.262 15.3187 208.5C15.3607 208.738 15.3887 208.976 15.3887 209.2C15.3887 209.606 15.3187 209.998 15.1787 210.348C15.0387 210.698 14.8287 211.02 14.5627 211.286C14.2967 211.552 13.9607 211.776 13.5687 211.93C13.1627 212.098 12.7147 212.182 12.2107 212.196C11.6367 212.196 11.1467 212.14 10.7267 212.042C10.3067 211.944 9.9567 211.762 9.6767 211.524C9.3967 211.286 9.1727 210.978 9.0187 210.586C8.8647 210.208 8.7527 209.718 8.6967 209.144H9.5927C9.5927 209.9 9.8167 210.474 10.2787 210.852C10.7267 211.244 11.3147 211.44 12.0427 211.44C12.3927 211.44 12.7287 211.384 13.0367 211.258C13.3447 211.132 13.6107 210.978 13.8347 210.768C14.0447 210.558 14.2127 210.32 14.3387 210.054C14.4507 209.788 14.5067 209.508 14.4927 209.214C14.4787 208.808 14.3807 208.472 14.2127 208.206C14.0447 207.94 13.8207 207.73 13.5407 207.576C13.2467 207.422 12.9107 207.324 12.5327 207.268C12.1547 207.226 11.7487 207.212 11.3147 207.24V206.512ZM19.892 202.13C20.382 202.13 20.802 202.2 21.152 202.34C21.502 202.494 21.81 202.69 22.062 202.942C22.3 203.194 22.51 203.488 22.664 203.824C22.818 204.16 22.93 204.51 23.014 204.888C23.098 205.266 23.154 205.658 23.182 206.064C23.21 206.47 23.224 206.862 23.224 207.24C23.224 207.898 23.182 208.514 23.084 209.116C22.986 209.718 22.818 210.236 22.58 210.698C22.328 211.16 21.992 211.524 21.558 211.79C21.124 212.056 20.578 212.196 19.892 212.196C19.206 212.196 18.66 212.056 18.226 211.79C17.792 211.524 17.442 211.146 17.204 210.684C16.952 210.222 16.784 209.69 16.686 209.074C16.588 208.472 16.546 207.828 16.546 207.142C16.546 206.512 16.588 205.91 16.672 205.308C16.756 204.706 16.924 204.174 17.162 203.698C17.4 203.236 17.736 202.858 18.17 202.564C18.604 202.27 19.178 202.13 19.892 202.13ZM22.328 207.142C22.328 206.61 22.3 206.092 22.244 205.574C22.174 205.07 22.062 204.622 21.88 204.216C21.698 203.81 21.46 203.488 21.138 203.25C20.816 203.012 20.382 202.886 19.864 202.886C19.374 202.886 18.968 203.012 18.66 203.25C18.338 203.502 18.1 203.838 17.918 204.244C17.736 204.65 17.624 205.126 17.554 205.644C17.484 206.162 17.442 206.694 17.442 207.24C17.442 207.87 17.484 208.444 17.568 208.962C17.638 209.48 17.778 209.928 17.96 210.292C18.142 210.656 18.394 210.936 18.716 211.132C19.024 211.342 19.416 211.44 19.892 211.44C20.424 211.44 20.858 211.314 21.18 211.048C21.502 210.782 21.74 210.446 21.908 210.04C22.076 209.634 22.188 209.172 22.244 208.654C22.3 208.136 22.328 207.632 22.328 207.142Z" fill="white"/>
<path d="M8.7247 188.794L13.3167 182.228H14.1287V188.808H15.5007V189.564H14.1287V192H13.2327V189.564H8.7247V188.794ZM13.2327 183.572L9.6067 188.808H13.2327V183.572ZM19.892 182.13C20.382 182.13 20.802 182.2 21.152 182.34C21.502 182.494 21.81 182.69 22.062 182.942C22.3 183.194 22.51 183.488 22.664 183.824C22.818 184.16 22.93 184.51 23.014 184.888C23.098 185.266 23.154 185.658 23.182 186.064C23.21 186.47 23.224 186.862 23.224 187.24C23.224 187.898 23.182 188.514 23.084 189.116C22.986 189.718 22.818 190.236 22.58 190.698C22.328 191.16 21.992 191.524 21.558 191.79C21.124 192.056 20.578 192.196 19.892 192.196C19.206 192.196 18.66 192.056 18.226 191.79C17.792 191.524 17.442 191.146 17.204 190.684C16.952 190.222 16.784 189.69 16.686 189.074C16.588 188.472 16.546 187.828 16.546 187.142C16.546 186.512 16.588 185.91 16.672 185.308C16.756 184.706 16.924 184.174 17.162 183.698C17.4 183.236 17.736 182.858 18.17 182.564C18.604 182.27 19.178 182.13 19.892 182.13ZM22.328 187.142C22.328 186.61 22.3 186.092 22.244 185.574C22.174 185.07 22.062 184.622 21.88 184.216C21.698 183.81 21.46 183.488 21.138 183.25C20.816 183.012 20.382 182.886 19.864 182.886C19.374 182.886 18.968 183.012 18.66 183.25C18.338 183.502 18.1 183.838 17.918 184.244C17.736 184.65 17.624 185.126 17.554 185.644C17.484 186.162 17.442 186.694 17.442 187.24C17.442 187.87 17.484 188.444 17.568 188.962C17.638 189.48 17.778 189.928 17.96 190.292C18.142 190.656 18.394 190.936 18.716 191.132C19.024 191.342 19.416 191.44 19.892 191.44C20.424 191.44 20.858 191.314 21.18 191.048C21.502 190.782 21.74 190.446 21.908 190.04C22.076 189.634 22.188 189.172 22.244 188.654C22.3 188.136 22.328 187.632 22.328 187.142Z" fill="white"/>
<path d="M9.6067 169.438C9.7047 170.11 9.9707 170.614 10.4187 170.936C10.8527 171.272 11.3987 171.44 12.0427 171.44C12.4067 171.44 12.7427 171.37 13.0367 171.244C13.3307 171.118 13.5687 170.936 13.7787 170.698C13.9887 170.474 14.1427 170.208 14.2547 169.9C14.3527 169.606 14.4087 169.27 14.4087 168.92C14.4087 168.556 14.3527 168.22 14.2407 167.912C14.1147 167.604 13.9607 167.338 13.7507 167.114C13.5407 166.89 13.2747 166.722 12.9807 166.596C12.6727 166.47 12.3367 166.414 11.9587 166.414C11.5107 166.414 11.1047 166.498 10.7547 166.652C10.4047 166.82 10.0827 167.086 9.8167 167.436L9.0747 167.338L9.8727 162.228H14.7727V162.984H10.6287L10.0127 166.302C10.2087 166.176 10.3907 166.078 10.5587 165.994C10.7127 165.91 10.8807 165.84 11.0487 165.784C11.2167 165.742 11.3987 165.7 11.5807 165.686C11.7627 165.672 11.9587 165.658 12.1827 165.658C12.6307 165.658 13.0507 165.728 13.4287 165.882C13.8067 166.036 14.1427 166.246 14.4227 166.526C14.7027 166.806 14.9267 167.142 15.0807 167.548C15.2347 167.954 15.3047 168.416 15.3047 168.92C15.3047 169.438 15.2207 169.9 15.0527 170.306C14.8707 170.712 14.6467 171.062 14.3527 171.342C14.0587 171.622 13.7367 171.832 13.3587 171.972C12.9807 172.126 12.5887 172.196 12.1827 172.196C11.7207 172.196 11.2867 172.154 10.8807 172.056C10.4747 171.958 10.1107 171.804 9.8027 171.58C9.4947 171.37 9.2427 171.076 9.0607 170.726C8.8647 170.376 8.7527 169.956 8.7107 169.438H9.6067ZM19.892 162.13C20.382 162.13 20.802 162.2 21.152 162.34C21.502 162.494 21.81 162.69 22.062 162.942C22.3 163.194 22.51 163.488 22.664 163.824C22.818 164.16 22.93 164.51 23.014 164.888C23.098 165.266 23.154 165.658 23.182 166.064C23.21 166.47 23.224 166.862 23.224 167.24C23.224 167.898 23.182 168.514 23.084 169.116C22.986 169.718 22.818 170.236 22.58 170.698C22.328 171.16 21.992 171.524 21.558 171.79C21.124 172.056 20.578 172.196 19.892 172.196C19.206 172.196 18.66 172.056 18.226 171.79C17.792 171.524 17.442 171.146 17.204 170.684C16.952 170.222 16.784 169.69 16.686 169.074C16.588 168.472 16.546 167.828 16.546 167.142C16.546 166.512 16.588 165.91 16.672 165.308C16.756 164.706 16.924 164.174 17.162 163.698C17.4 163.236 17.736 162.858 18.17 162.564C18.604 162.27 19.178 162.13 19.892 162.13ZM22.328 167.142C22.328 166.61 22.3 166.092 22.244 165.574C22.174 165.07 22.062 164.622 21.88 164.216C21.698 163.81 21.46 163.488 21.138 163.25C20.816 163.012 20.382 162.886 19.864 162.886C19.374 162.886 18.968 163.012 18.66 163.25C18.338 163.502 18.1 163.838 17.918 164.244C17.736 164.65 17.624 165.126 17.554 165.644C17.484 166.162 17.442 166.694 17.442 167.24C17.442 167.87 17.484 168.444 17.568 168.962C17.638 169.48 17.778 169.928 17.96 170.292C18.142 170.656 18.394 170.936 18.716 171.132C19.024 171.342 19.416 171.44 19.892 171.44C20.424 171.44 20.858 171.314 21.18 171.048C21.502 170.782 21.74 170.446 21.908 170.04C22.076 169.634 22.188 169.172 22.244 168.654C22.3 168.136 22.328 167.632 22.328 167.142Z" fill="white"/>
<path d="M14.3387 144.552C14.2407 144.048 14.0307 143.642 13.7227 143.334C13.4147 143.04 12.9947 142.886 12.4627 142.886C11.8607 142.886 11.3847 143.026 11.0347 143.32C10.6847 143.614 10.4047 143.978 10.2227 144.412C10.0407 144.86 9.9147 145.35 9.8447 145.868C9.7747 146.386 9.7327 146.89 9.6907 147.352C9.8307 147.17 9.9847 146.974 10.1387 146.792C10.2927 146.61 10.4607 146.442 10.6567 146.288C10.8527 146.148 11.0767 146.036 11.3427 145.938C11.6087 145.854 11.9167 145.812 12.2807 145.812C13.2747 145.812 14.0587 146.092 14.6047 146.652C15.1507 147.226 15.4167 147.996 15.4167 148.99C15.4167 149.984 15.1367 150.768 14.5907 151.342C14.0447 151.916 13.2607 152.196 12.2527 152.196C11.7627 152.196 11.3007 152.112 10.8807 151.944C10.4607 151.79 10.0967 151.524 9.7887 151.146C9.4807 150.768 9.2427 150.278 9.0607 149.676C8.8787 149.074 8.7947 148.346 8.7947 147.478C8.7947 146.89 8.8507 146.274 8.9487 145.644C9.0467 145.014 9.2427 144.44 9.5087 143.922C9.7747 143.404 10.1387 142.97 10.6007 142.634C11.0627 142.298 11.6507 142.13 12.3787 142.13C13.1627 142.13 13.8207 142.34 14.3387 142.746C14.8567 143.152 15.1647 143.754 15.2627 144.552H14.3387ZM12.2527 146.568C11.9027 146.568 11.5947 146.638 11.3287 146.764C11.0487 146.89 10.8107 147.072 10.6287 147.296C10.4327 147.52 10.2787 147.772 10.1807 148.066C10.0827 148.36 10.0267 148.682 10.0267 149.018C10.0267 149.298 10.0687 149.578 10.1527 149.858C10.2227 150.152 10.3627 150.404 10.5447 150.642C10.7267 150.88 10.9507 151.062 11.2307 151.216C11.5107 151.37 11.8607 151.44 12.2667 151.44C12.6867 151.44 13.0367 151.37 13.3307 151.216C13.6107 151.076 13.8347 150.88 14.0167 150.642C14.1987 150.404 14.3247 150.138 14.4087 149.844C14.4787 149.55 14.5207 149.256 14.5207 148.962C14.5207 148.192 14.3387 147.604 13.9747 147.184C13.5967 146.778 13.0227 146.568 12.2527 146.568ZM19.892 142.13C20.382 142.13 20.802 142.2 21.152 142.34C21.502 142.494 21.81 142.69 22.062 142.942C22.3 143.194 22.51 143.488 22.664 143.824C22.818 144.16 22.93 144.51 23.014 144.888C23.098 145.266 23.154 145.658 23.182 146.064C23.21 146.47 23.224 146.862 23.224 147.24C23.224 147.898 23.182 148.514 23.084 149.116C22.986 149.718 22.818 150.236 22.58 150.698C22.328 151.16 21.992 151.524 21.558 151.79C21.124 152.056 20.578 152.196 19.892 152.196C19.206 152.196 18.66 152.056 18.226 151.79C17.792 151.524 17.442 151.146 17.204 150.684C16.952 150.222 16.784 149.69 16.686 149.074C16.588 148.472 16.546 147.828 16.546 147.142C16.546 146.512 16.588 145.91 16.672 145.308C16.756 144.706 16.924 144.174 17.162 143.698C17.4 143.236 17.736 142.858 18.17 142.564C18.604 142.27 19.178 142.13 19.892 142.13ZM22.328 147.142C22.328 146.61 22.3 146.092 22.244 145.574C22.174 145.07 22.062 144.622 21.88 144.216C21.698 143.81 21.46 143.488 21.138 143.25C20.816 143.012 20.382 142.886 19.864 142.886C19.374 142.886 18.968 143.012 18.66 143.25C18.338 143.502 18.1 143.838 17.918 144.244C17.736 144.65 17.624 145.126 17.554 145.644C17.484 146.162 17.442 146.694 17.442 147.24C17.442 147.87 17.484 148.444 17.568 148.962C17.638 149.48 17.778 149.928 17.96 150.292C18.142 150.656 18.394 150.936 18.716 151.132C19.024 151.342 19.416 151.44 19.892 151.44C20.424 151.44 20.858 151.314 21.18 151.048C21.502 150.782 21.74 150.446 21.908 150.04C22.076 149.634 22.188 149.172 22.244 148.654C22.3 148.136 22.328 147.632 22.328 147.142Z" fill="white"/>
<path d="M15.3327 123.068C14.6187 123.866 14.0167 124.692 13.5267 125.532C13.0367 126.386 12.6307 127.198 12.3087 127.996C11.9867 128.794 11.7627 129.55 11.6087 130.236C11.4547 130.922 11.3567 131.51 11.3287 132H10.3487C10.3907 131.286 10.5447 130.53 10.7827 129.732C11.0207 128.934 11.3147 128.15 11.6647 127.366C12.0147 126.582 12.4207 125.826 12.8687 125.084C13.3167 124.356 13.7787 123.698 14.2547 123.124H9.0467V122.228H15.3327V123.068ZM19.892 122.13C20.382 122.13 20.802 122.2 21.152 122.34C21.502 122.494 21.81 122.69 22.062 122.942C22.3 123.194 22.51 123.488 22.664 123.824C22.818 124.16 22.93 124.51 23.014 124.888C23.098 125.266 23.154 125.658 23.182 126.064C23.21 126.47 23.224 126.862 23.224 127.24C23.224 127.898 23.182 128.514 23.084 129.116C22.986 129.718 22.818 130.236 22.58 130.698C22.328 131.16 21.992 131.524 21.558 131.79C21.124 132.056 20.578 132.196 19.892 132.196C19.206 132.196 18.66 132.056 18.226 131.79C17.792 131.524 17.442 131.146 17.204 130.684C16.952 130.222 16.784 129.69 16.686 129.074C16.588 128.472 16.546 127.828 16.546 127.142C16.546 126.512 16.588 125.91 16.672 125.308C16.756 124.706 16.924 124.174 17.162 123.698C17.4 123.236 17.736 122.858 18.17 122.564C18.604 122.27 19.178 122.13 19.892 122.13ZM22.328 127.142C22.328 126.61 22.3 126.092 22.244 125.574C22.174 125.07 22.062 124.622 21.88 124.216C21.698 123.81 21.46 123.488 21.138 123.25C20.816 123.012 20.382 122.886 19.864 122.886C19.374 122.886 18.968 123.012 18.66 123.25C18.338 123.502 18.1 123.838 17.918 124.244C17.736 124.65 17.624 125.126 17.554 125.644C17.484 126.162 17.442 126.694 17.442 127.24C17.442 127.87 17.484 128.444 17.568 128.962C17.638 129.48 17.778 129.928 17.96 130.292C18.142 130.656 18.394 130.936 18.716 131.132C19.024 131.342 19.416 131.44 19.892 131.44C20.424 131.44 20.858 131.314 21.18 131.048C21.502 130.782 21.74 130.446 21.908 130.04C22.076 129.634 22.188 129.172 22.244 128.654C22.3 128.136 22.328 127.632 22.328 127.142Z" fill="white"/>
<path d="M10.5587 106.694C10.3207 106.54 10.1107 106.4 9.9427 106.26C9.7607 106.134 9.6207 105.98 9.5087 105.826C9.3967 105.672 9.3127 105.49 9.2707 105.28C9.2147 105.084 9.1867 104.832 9.1867 104.538C9.1867 104.202 9.2567 103.88 9.4107 103.586C9.5647 103.292 9.7607 103.026 10.0127 102.802C10.2647 102.592 10.5587 102.424 10.9087 102.298C11.2447 102.172 11.6087 102.116 12.0007 102.13C12.3787 102.13 12.7427 102.172 13.1067 102.27C13.4567 102.368 13.7787 102.508 14.0587 102.704C14.3387 102.9 14.5627 103.152 14.7307 103.446C14.8987 103.754 14.9827 104.118 14.9827 104.538C14.9827 105.056 14.8847 105.49 14.6747 105.854C14.4647 106.218 14.1147 106.512 13.6387 106.75C14.1847 106.946 14.6047 107.254 14.9267 107.688C15.2347 108.122 15.3887 108.626 15.3887 109.2C15.3887 109.69 15.3047 110.11 15.1507 110.488C14.9827 110.866 14.7447 111.174 14.4507 111.426C14.1427 111.678 13.7787 111.874 13.3447 112C12.9107 112.126 12.4347 112.196 11.9167 112.196C11.5667 112.196 11.2027 112.14 10.8387 112.014C10.4607 111.888 10.1387 111.706 9.8447 111.468C9.5507 111.23 9.2987 110.922 9.1167 110.558C8.9347 110.194 8.8367 109.774 8.8367 109.284C8.8367 108.696 8.9907 108.164 9.2847 107.702C9.5787 107.24 9.9987 106.904 10.5587 106.694ZM12.0847 102.886C11.8047 102.886 11.5387 102.928 11.3007 102.998C11.0627 103.068 10.8527 103.18 10.6707 103.334C10.4887 103.488 10.3347 103.67 10.2367 103.894C10.1387 104.118 10.0827 104.37 10.0827 104.664C10.0827 104.972 10.1387 105.238 10.2647 105.448C10.3767 105.672 10.5307 105.854 10.7267 105.994C10.9227 106.134 11.1467 106.232 11.3987 106.302C11.6507 106.372 11.9167 106.414 12.1827 106.414C12.4487 106.414 12.7007 106.372 12.9387 106.302C13.1767 106.232 13.3727 106.12 13.5407 105.966C13.7087 105.812 13.8487 105.602 13.9467 105.364C14.0447 105.126 14.0867 104.818 14.0867 104.468C14.0867 103.964 13.9187 103.572 13.5967 103.292C13.2747 103.026 12.7707 102.886 12.0847 102.886ZM12.1267 107.17C11.7767 107.17 11.4687 107.212 11.1747 107.296C10.8807 107.38 10.6287 107.506 10.4187 107.674C10.2087 107.856 10.0407 108.066 9.9147 108.332C9.7887 108.598 9.7327 108.92 9.7327 109.284C9.7327 109.592 9.7887 109.872 9.9147 110.138C10.0267 110.404 10.1947 110.628 10.4047 110.81C10.6147 111.006 10.8667 111.16 11.1747 111.272C11.4687 111.384 11.8047 111.44 12.1827 111.44C12.5047 111.44 12.8127 111.384 13.0927 111.272C13.3727 111.174 13.6247 111.02 13.8347 110.824C14.0447 110.628 14.1987 110.39 14.3247 110.124C14.4367 109.858 14.4927 109.55 14.4927 109.228C14.4927 108.878 14.4367 108.584 14.3107 108.318C14.1847 108.066 14.0167 107.856 13.8067 107.674C13.5967 107.506 13.3447 107.38 13.0507 107.296C12.7567 107.212 12.4487 107.17 12.1267 107.17ZM19.892 102.13C20.382 102.13 20.802 102.2 21.152 102.34C21.502 102.494 21.81 102.69 22.062 102.942C22.3 103.194 22.51 103.488 22.664 103.824C22.818 104.16 22.93 104.51 23.014 104.888C23.098 105.266 23.154 105.658 23.182 106.064C23.21 106.47 23.224 106.862 23.224 107.24C23.224 107.898 23.182 108.514 23.084 109.116C22.986 109.718 22.818 110.236 22.58 110.698C22.328 111.16 21.992 111.524 21.558 111.79C21.124 112.056 20.578 112.196 19.892 112.196C19.206 112.196 18.66 112.056 18.226 111.79C17.792 111.524 17.442 111.146 17.204 110.684C16.952 110.222 16.784 109.69 16.686 109.074C16.588 108.472 16.546 107.828 16.546 107.142C16.546 106.512 16.588 105.91 16.672 105.308C16.756 104.706 16.924 104.174 17.162 103.698C17.4 103.236 17.736 102.858 18.17 102.564C18.604 102.27 19.178 102.13 19.892 102.13ZM22.328 107.142C22.328 106.61 22.3 106.092 22.244 105.574C22.174 105.07 22.062 104.622 21.88 104.216C21.698 103.81 21.46 103.488 21.138 103.25C20.816 103.012 20.382 102.886 19.864 102.886C19.374 102.886 18.968 103.012 18.66 103.25C18.338 103.502 18.1 103.838 17.918 104.244C17.736 104.65 17.624 105.126 17.554 105.644C17.484 106.162 17.442 106.694 17.442 107.24C17.442 107.87 17.484 108.444 17.568 108.962C17.638 109.48 17.778 109.928 17.96 110.292C18.142 110.656 18.394 110.936 18.716 111.132C19.024 111.342 19.416 111.44 19.892 111.44C20.424 111.44 20.858 111.314 21.18 111.048C21.502 110.782 21.74 110.446 21.908 110.04C22.076 109.634 22.188 109.172 22.244 108.654C22.3 108.136 22.328 107.632 22.328 107.142Z" fill="white"/>
<path d="M9.8727 89.83C9.9707 90.362 10.1807 90.768 10.5027 91.034C10.8107 91.3 11.2447 91.44 11.7907 91.44C12.3787 91.44 12.8547 91.3 13.2047 91.006C13.5547 90.712 13.8207 90.348 14.0167 89.914C14.1987 89.48 14.3387 89.004 14.4087 88.486C14.4787 87.982 14.5207 87.506 14.5347 87.058L14.5067 87.03C14.2127 87.534 13.8347 87.912 13.4007 88.178C12.9527 88.444 12.4347 88.57 11.8467 88.57C11.3847 88.57 10.9647 88.5 10.5867 88.346C10.2087 88.192 9.9007 87.982 9.6347 87.702C9.3687 87.422 9.1587 87.086 9.0187 86.694C8.8647 86.302 8.7947 85.868 8.7947 85.392C8.7947 84.93 8.8647 84.496 8.9907 84.09C9.1167 83.698 9.3127 83.348 9.5787 83.054C9.8447 82.76 10.1667 82.536 10.5727 82.368C10.9647 82.214 11.4267 82.13 11.9727 82.13C12.6307 82.13 13.1907 82.256 13.6387 82.522C14.0727 82.788 14.4367 83.138 14.7027 83.586C14.9687 84.034 15.1507 84.566 15.2627 85.168C15.3747 85.77 15.4307 86.428 15.4307 87.114C15.4307 87.954 15.3467 88.682 15.1647 89.312C14.9827 89.942 14.7447 90.474 14.4227 90.908C14.1007 91.342 13.7087 91.664 13.2747 91.874C12.8407 92.084 12.3507 92.196 11.8327 92.196C11.4547 92.196 11.0907 92.154 10.7547 92.056C10.4187 91.958 10.1247 91.818 9.8727 91.622C9.6207 91.426 9.4107 91.174 9.2567 90.88C9.1027 90.586 9.0047 90.236 8.9627 89.83H9.8727ZM11.9727 82.886C11.2167 82.9 10.6427 83.138 10.2647 83.586C9.8867 84.034 9.6907 84.65 9.6907 85.42C9.6907 86.176 9.8867 86.764 10.2927 87.184C10.6847 87.604 11.2447 87.814 11.9727 87.814C12.3227 87.814 12.6307 87.744 12.9107 87.618C13.1767 87.492 13.4147 87.31 13.6107 87.086C13.7927 86.862 13.9467 86.596 14.0447 86.302C14.1427 86.008 14.1847 85.7 14.1847 85.364C14.1847 84.636 13.9887 84.048 13.5967 83.586C13.2047 83.138 12.6587 82.9 11.9727 82.886ZM19.892 82.13C20.382 82.13 20.802 82.2 21.152 82.34C21.502 82.494 21.81 82.69 22.062 82.942C22.3 83.194 22.51 83.488 22.664 83.824C22.818 84.16 22.93 84.51 23.014 84.888C23.098 85.266 23.154 85.658 23.182 86.064C23.21 86.47 23.224 86.862 23.224 87.24C23.224 87.898 23.182 88.514 23.084 89.116C22.986 89.718 22.818 90.236 22.58 90.698C22.328 91.16 21.992 91.524 21.558 91.79C21.124 92.056 20.578 92.196 19.892 92.196C19.206 92.196 18.66 92.056 18.226 91.79C17.792 91.524 17.442 91.146 17.204 90.684C16.952 90.222 16.784 89.69 16.686 89.074C16.588 88.472 16.546 87.828 16.546 87.142C16.546 86.512 16.588 85.91 16.672 85.308C16.756 84.706 16.924 84.174 17.162 83.698C17.4 83.236 17.736 82.858 18.17 82.564C18.604 82.27 19.178 82.13 19.892 82.13ZM22.328 87.142C22.328 86.61 22.3 86.092 22.244 85.574C22.174 85.07 22.062 84.622 21.88 84.216C21.698 83.81 21.46 83.488 21.138 83.25C20.816 83.012 20.382 82.886 19.864 82.886C19.374 82.886 18.968 83.012 18.66 83.25C18.338 83.502 18.1 83.838 17.918 84.244C17.736 84.65 17.624 85.126 17.554 85.644C17.484 86.162 17.442 86.694 17.442 87.24C17.442 87.87 17.484 88.444 17.568 88.962C17.638 89.48 17.778 89.928 17.96 90.292C18.142 90.656 18.394 90.936 18.716 91.132C19.024 91.342 19.416 91.44 19.892 91.44C20.424 91.44 20.858 91.314 21.18 91.048C21.502 90.782 21.74 90.446 21.908 90.04C22.076 89.634 22.188 89.172 22.244 88.654C22.3 88.136 22.328 87.632 22.328 87.142Z" fill="white"/>
<path d="M2.01105 64.076C2.38905 64.048 2.72505 64.006 3.03305 63.964C3.32705 63.922 3.59305 63.824 3.83105 63.698C4.05505 63.572 4.25105 63.376 4.40505 63.124C4.55905 62.886 4.67105 62.55 4.74106 62.13H5.45506V72H4.55905V64.664H2.01105V64.076ZM12.0024 62.13C12.4924 62.13 12.9124 62.2 13.2624 62.34C13.6124 62.494 13.9204 62.69 14.1724 62.942C14.4104 63.194 14.6204 63.488 14.7744 63.824C14.9284 64.16 15.0404 64.51 15.1244 64.888C15.2084 65.266 15.2644 65.658 15.2924 66.064C15.3204 66.47 15.3344 66.862 15.3344 67.24C15.3344 67.898 15.2924 68.514 15.1944 69.116C15.0964 69.718 14.9284 70.236 14.6904 70.698C14.4384 71.16 14.1024 71.524 13.6684 71.79C13.2344 72.056 12.6884 72.196 12.0024 72.196C11.3164 72.196 10.7704 72.056 10.3364 71.79C9.90235 71.524 9.55235 71.146 9.31435 70.684C9.06235 70.222 8.89435 69.69 8.79635 69.074C8.69835 68.472 8.65635 67.828 8.65635 67.142C8.65635 66.512 8.69835 65.91 8.78235 65.308C8.86635 64.706 9.03435 64.174 9.27235 63.698C9.51035 63.236 9.84635 62.858 10.2804 62.564C10.7144 62.27 11.2884 62.13 12.0024 62.13ZM14.4384 67.142C14.4384 66.61 14.4104 66.092 14.3544 65.574C14.2844 65.07 14.1724 64.622 13.9904 64.216C13.8084 63.81 13.5704 63.488 13.2484 63.25C12.9264 63.012 12.4924 62.886 11.9744 62.886C11.4844 62.886 11.0784 63.012 10.7704 63.25C10.4484 63.502 10.2104 63.838 10.0284 64.244C9.84635 64.65 9.73435 65.126 9.66435 65.644C9.59435 66.162 9.55235 66.694 9.55235 67.24C9.55235 67.87 9.59435 68.444 9.67835 68.962C9.74835 69.48 9.88835 69.928 10.0704 70.292C10.2524 70.656 10.5044 70.936 10.8264 71.132C11.1344 71.342 11.5264 71.44 12.0024 71.44C12.5344 71.44 12.9684 71.314 13.2904 71.048C13.6124 70.782 13.8504 70.446 14.0184 70.04C14.1864 69.634 14.2984 69.172 14.3544 68.654C14.4104 68.136 14.4384 67.632 14.4384 67.142ZM19.7816 62.13C20.2716 62.13 20.6916 62.2 21.0416 62.34C21.3916 62.494 21.6996 62.69 21.9516 62.942C22.1896 63.194 22.3996 63.488 22.5536 63.824C22.7076 64.16 22.8196 64.51 22.9036 64.888C22.9876 65.266 23.0436 65.658 23.0716 66.064C23.0996 66.47 23.1136 66.862 23.1136 67.24C23.1136 67.898 23.0716 68.514 22.9736 69.116C22.8756 69.718 22.7076 70.236 22.4696 70.698C22.2176 71.16 21.8816 71.524 21.4476 71.79C21.0136 72.056 20.4676 72.196 19.7816 72.196C19.0956 72.196 18.5496 72.056 18.1156 71.79C17.6816 71.524 17.3316 71.146 17.0936 70.684C16.8416 70.222 16.6736 69.69 16.5756 69.074C16.4776 68.472 16.4356 67.828 16.4356 67.142C16.4356 66.512 16.4776 65.91 16.5616 65.308C16.6456 64.706 16.8136 64.174 17.0516 63.698C17.2896 63.236 17.6256 62.858 18.0596 62.564C18.4936 62.27 19.0676 62.13 19.7816 62.13ZM22.2176 67.142C22.2176 66.61 22.1896 66.092 22.1336 65.574C22.0636 65.07 21.9516 64.622 21.7696 64.216C21.5876 63.81 21.3496 63.488 21.0276 63.25C20.7056 63.012 20.2716 62.886 19.7536 62.886C19.2636 62.886 18.8576 63.012 18.5496 63.25C18.2276 63.502 17.9896 63.838 17.8076 64.244C17.6256 64.65 17.5136 65.126 17.4436 65.644C17.3736 66.162 17.3316 66.694 17.3316 67.24C17.3316 67.87 17.3736 68.444 17.4576 68.962C17.5276 69.48 17.6676 69.928 17.8496 70.292C18.0316 70.656 18.2836 70.936 18.6056 71.132C18.9136 71.342 19.3056 71.44 19.7816 71.44C20.3136 71.44 20.7476 71.314 21.0696 71.048C21.3916 70.782 21.6296 70.446 21.7976 70.04C21.9656 69.634 22.0776 69.172 22.1336 68.654C22.1896 68.136 22.2176 67.632 22.2176 67.142Z" fill="white"/>
<path d="M2.01105 44.076C2.38905 44.048 2.72505 44.006 3.03305 43.964C3.32705 43.922 3.59305 43.824 3.83105 43.698C4.05505 43.572 4.25105 43.376 4.40505 43.124C4.55905 42.886 4.67105 42.55 4.74106 42.13H5.45506V52H4.55905V44.664H2.01105V44.076ZM9.79035 44.076C10.1684 44.048 10.5044 44.006 10.8124 43.964C11.1064 43.922 11.3724 43.824 11.6104 43.698C11.8344 43.572 12.0304 43.376 12.1844 43.124C12.3384 42.886 12.4504 42.55 12.5204 42.13H13.2344V52H12.3384V44.664H9.79035V44.076ZM19.7816 42.13C20.2716 42.13 20.6916 42.2 21.0416 42.34C21.3916 42.494 21.6996 42.69 21.9516 42.942C22.1896 43.194 22.3996 43.488 22.5536 43.824C22.7076 44.16 22.8196 44.51 22.9036 44.888C22.9876 45.266 23.0436 45.658 23.0716 46.064C23.0996 46.47 23.1136 46.862 23.1136 47.24C23.1136 47.898 23.0716 48.514 22.9736 49.116C22.8756 49.718 22.7076 50.236 22.4696 50.698C22.2176 51.16 21.8816 51.524 21.4476 51.79C21.0136 52.056 20.4676 52.196 19.7816 52.196C19.0956 52.196 18.5496 52.056 18.1156 51.79C17.6816 51.524 17.3316 51.146 17.0936 50.684C16.8416 50.222 16.6736 49.69 16.5756 49.074C16.4776 48.472 16.4356 47.828 16.4356 47.142C16.4356 46.512 16.4776 45.91 16.5616 45.308C16.6456 44.706 16.8136 44.174 17.0516 43.698C17.2896 43.236 17.6256 42.858 18.0596 42.564C18.4936 42.27 19.0676 42.13 19.7816 42.13ZM22.2176 47.142C22.2176 46.61 22.1896 46.092 22.1336 45.574C22.0636 45.07 21.9516 44.622 21.7696 44.216C21.5876 43.81 21.3496 43.488 21.0276 43.25C20.7056 43.012 20.2716 42.886 19.7536 42.886C19.2636 42.886 18.8576 43.012 18.5496 43.25C18.2276 43.502 17.9896 43.838 17.8076 44.244C17.6256 44.65 17.5136 45.126 17.4436 45.644C17.3736 46.162 17.3316 46.694 17.3316 47.24C17.3316 47.87 17.3736 48.444 17.4576 48.962C17.5276 49.48 17.6676 49.928 17.8496 50.292C18.0316 50.656 18.2836 50.936 18.6056 51.132C18.9136 51.342 19.3056 51.44 19.7816 51.44C20.3136 51.44 20.7476 51.314 21.0696 51.048C21.3916 50.782 21.6296 50.446 21.7976 50.04C21.9656 49.634 22.0776 49.172 22.1336 48.654C22.1896 48.136 22.2176 47.632 22.2176 47.142Z" fill="white"/>
<path d="M2.51105 26.076C2.88905 26.048 3.22505 26.006 3.53305 25.964C3.82705 25.922 4.09305 25.824 4.33105 25.698C4.55505 25.572 4.75105 25.376 4.90505 25.124C5.05905 24.886 5.17105 24.55 5.24106 24.13H5.95506V34H5.05905V26.664H2.51105V26.076ZM9.57635 27.364C9.57635 26.874 9.64635 26.44 9.80035 26.034C9.95435 25.642 10.1644 25.306 10.4444 25.012C10.7244 24.732 11.0604 24.508 11.4664 24.354C11.8584 24.2 12.2924 24.13 12.7824 24.13C13.2724 24.13 13.7204 24.2 14.0984 24.34C14.4764 24.494 14.7844 24.69 15.0504 24.928C15.3024 25.166 15.4984 25.46 15.6244 25.796C15.7504 26.132 15.8204 26.482 15.8204 26.86C15.8204 27.294 15.7504 27.686 15.6104 28.022C15.4564 28.358 15.2744 28.652 15.0364 28.918C14.7984 29.184 14.5184 29.408 14.2244 29.618C13.9164 29.828 13.6084 30.01 13.2864 30.192C12.9644 30.374 12.6564 30.556 12.3484 30.724C12.0404 30.892 11.7604 31.074 11.5224 31.256L11.0604 31.634C10.9064 31.774 10.7804 31.928 10.6544 32.082C10.5284 32.236 10.4304 32.418 10.3604 32.6C10.2904 32.796 10.2484 33.006 10.2344 33.244H15.7364V34H9.28235C9.29635 33.524 9.33835 33.09 9.43635 32.712C9.53435 32.334 9.73035 31.956 10.0524 31.592C10.4024 31.2 10.7524 30.864 11.1304 30.584C11.4944 30.304 11.8584 30.052 12.2084 29.828C12.5584 29.618 12.8944 29.408 13.2164 29.226C13.5384 29.044 13.8184 28.848 14.0564 28.638C14.2944 28.428 14.4904 28.176 14.6304 27.91C14.7704 27.644 14.8404 27.308 14.8404 26.916C14.8404 26.594 14.7844 26.314 14.6724 26.062C14.5604 25.81 14.4064 25.6 14.2104 25.418C14.0144 25.236 13.7904 25.11 13.5244 25.012C13.2584 24.928 12.9784 24.886 12.6704 24.886C12.3484 24.886 12.0544 24.956 11.7884 25.082C11.5224 25.222 11.2844 25.404 11.1024 25.628C10.9064 25.852 10.7524 26.118 10.6544 26.412C10.5564 26.706 10.5144 27.028 10.5284 27.364H9.57635ZM20.2816 24.13C20.7716 24.13 21.1916 24.2 21.5416 24.34C21.8916 24.494 22.1996 24.69 22.4516 24.942C22.6896 25.194 22.8996 25.488 23.0536 25.824C23.2076 26.16 23.3196 26.51 23.4036 26.888C23.4876 27.266 23.5436 27.658 23.5716 28.064C23.5996 28.47 23.6136 28.862 23.6136 29.24C23.6136 29.898 23.5716 30.514 23.4736 31.116C23.3756 31.718 23.2076 32.236 22.9696 32.698C22.7176 33.16 22.3816 33.524 21.9476 33.79C21.5136 34.056 20.9676 34.196 20.2816 34.196C19.5956 34.196 19.0496 34.056 18.6156 33.79C18.1816 33.524 17.8316 33.146 17.5936 32.684C17.3416 32.222 17.1736 31.69 17.0756 31.074C16.9776 30.472 16.9356 29.828 16.9356 29.142C16.9356 28.512 16.9776 27.91 17.0616 27.308C17.1456 26.706 17.3136 26.174 17.5516 25.698C17.7896 25.236 18.1256 24.858 18.5596 24.564C18.9936 24.27 19.5676 24.13 20.2816 24.13ZM22.7176 29.142C22.7176 28.61 22.6896 28.092 22.6336 27.574C22.5636 27.07 22.4516 26.622 22.2696 26.216C22.0876 25.81 21.8496 25.488 21.5276 25.25C21.2056 25.012 20.7716 24.886 20.2536 24.886C19.7636 24.886 19.3576 25.012 19.0496 25.25C18.7276 25.502 18.4896 25.838 18.3076 26.244C18.1256 26.65 18.0136 27.126 17.9436 27.644C17.8736 28.162 17.8316 28.694 17.8316 29.24C17.8316 29.87 17.8736 30.444 17.9576 30.962C18.0276 31.48 18.1676 31.928 18.3496 32.292C18.5316 32.656 18.7836 32.936 19.1056 33.132C19.4136 33.342 19.8056 33.44 20.2816 33.44C20.8136 33.44 21.2476 33.314 21.5696 33.048C21.8916 32.782 22.1296 32.446 22.2976 32.04C22.4656 31.634 22.5776 31.172 22.6336 30.654C22.6896 30.136 22.7176 29.632 22.7176 29.142Z" fill="white"/>
<path d="M119.793 290.23C119.639 290.51 119.387 290.734 119.065 290.916C118.743 291.112 118.379 291.196 117.987 291.196C117.609 291.196 117.245 291.112 116.909 290.944C116.573 290.776 116.279 290.524 116.027 290.202C115.761 289.88 115.565 289.488 115.411 289.026C115.257 288.564 115.187 288.018 115.187 287.416C115.187 286.142 115.439 285.176 115.943 284.532C116.433 283.888 117.119 283.566 118.001 283.566C118.393 283.566 118.743 283.65 119.051 283.818C119.359 284 119.611 284.238 119.793 284.546H119.821V281.004H120.703V284.546H120.731C120.913 284.238 121.165 284 121.473 283.818C121.781 283.65 122.131 283.566 122.523 283.566C123.405 283.566 124.091 283.888 124.595 284.532C125.085 285.176 125.337 286.142 125.337 287.416C125.337 288.018 125.267 288.564 125.113 289.026C124.959 289.488 124.763 289.88 124.511 290.202C124.245 290.524 123.951 290.776 123.615 290.944C123.265 291.112 122.915 291.196 122.537 291.196C122.145 291.196 121.781 291.112 121.459 290.916C121.137 290.734 120.885 290.51 120.731 290.23C120.717 290.244 120.717 290.244 120.703 290.23V293.66H119.821V290.23H119.793ZM118.211 290.454C118.673 290.454 119.051 290.314 119.359 290.02C119.667 289.74 119.821 289.362 119.821 288.886V285.848C119.821 285.624 119.779 285.414 119.695 285.232C119.611 285.05 119.499 284.882 119.359 284.742C119.219 284.602 119.051 284.49 118.855 284.42C118.659 284.35 118.449 284.308 118.225 284.308C117.931 284.308 117.651 284.364 117.385 284.476C117.119 284.602 116.895 284.784 116.699 285.036C116.503 285.288 116.349 285.61 116.237 286.002C116.125 286.394 116.069 286.87 116.069 287.416C116.069 287.948 116.125 288.41 116.223 288.788C116.321 289.18 116.475 289.502 116.671 289.74C116.853 289.978 117.077 290.16 117.343 290.272C117.609 290.398 117.889 290.454 118.211 290.454ZM122.313 290.454C122.635 290.454 122.915 290.398 123.181 290.272C123.447 290.16 123.671 289.978 123.853 289.74C124.035 289.502 124.189 289.18 124.301 288.788C124.399 288.41 124.455 287.948 124.455 287.416C124.455 286.87 124.399 286.394 124.287 286.002C124.175 285.61 124.021 285.288 123.825 285.036C123.629 284.784 123.405 284.602 123.139 284.476C122.873 284.364 122.593 284.308 122.299 284.308C122.075 284.308 121.865 284.35 121.669 284.42C121.473 284.49 121.305 284.602 121.165 284.742C121.025 284.882 120.913 285.05 120.829 285.232C120.745 285.414 120.703 285.624 120.703 285.848V288.886C120.703 289.362 120.857 289.74 121.165 290.02C121.473 290.314 121.851 290.454 122.313 290.454ZM129.591 291.196C129.017 291.196 128.513 291.098 128.107 290.888C127.701 290.692 127.365 290.412 127.099 290.062C126.833 289.712 126.651 289.32 126.525 288.858C126.399 288.396 126.329 287.906 126.329 287.388C126.329 286.912 126.399 286.45 126.525 285.988C126.651 285.526 126.833 285.12 127.099 284.756C127.365 284.406 127.701 284.112 128.107 283.888C128.513 283.678 129.017 283.566 129.591 283.566C130.165 283.566 130.669 283.678 131.075 283.916C131.481 284.154 131.817 284.448 132.083 284.826C132.335 285.204 132.517 285.638 132.629 286.128C132.741 286.618 132.783 287.122 132.769 287.626H127.211C127.211 287.948 127.253 288.284 127.351 288.62C127.435 288.956 127.575 289.264 127.771 289.53C127.967 289.796 128.219 290.02 128.513 290.202C128.807 290.384 129.171 290.468 129.591 290.468C130.235 290.468 130.739 290.3 131.103 289.964C131.467 289.628 131.719 289.18 131.859 288.62H132.741C132.559 289.446 132.209 290.076 131.719 290.524C131.215 290.972 130.501 291.196 129.591 291.196ZM131.887 286.884C131.873 286.548 131.817 286.226 131.719 285.918C131.607 285.61 131.453 285.33 131.257 285.092C131.061 284.854 130.823 284.672 130.543 284.518C130.263 284.378 129.941 284.308 129.591 284.308C129.227 284.308 128.905 284.378 128.625 284.518C128.345 284.672 128.107 284.854 127.911 285.092C127.715 285.33 127.561 285.61 127.449 285.918C127.323 286.24 127.253 286.562 127.211 286.884H131.887ZM137.242 283.776C137.984 283.776 138.544 283.916 138.95 284.21C139.356 284.504 139.552 284.924 139.552 285.484C139.552 285.918 139.44 286.268 139.23 286.562C139.006 286.856 138.698 287.052 138.306 287.164V287.192C138.782 287.276 139.16 287.458 139.426 287.752C139.692 288.046 139.832 288.452 139.832 288.984C139.832 289.642 139.608 290.132 139.174 290.482C138.74 290.832 138.096 291 137.242 291H133.938V283.776H137.242ZM137.144 286.898C137.648 286.898 138.026 286.786 138.292 286.576C138.544 286.366 138.67 286.072 138.67 285.708C138.67 284.91 138.166 284.518 137.144 284.518H134.82V286.898H137.144ZM137.144 290.258C137.76 290.258 138.222 290.146 138.516 289.908C138.81 289.684 138.95 289.348 138.95 288.886C138.95 288.466 138.81 288.144 138.516 287.92C138.222 287.696 137.76 287.584 137.144 287.584H134.82V290.258H137.144Z" fill="white"/>
<path d="M181.865 290.006L184.525 283.776H185.701V291H184.819V285.05H184.777L182.243 291H181.459L178.925 285.05H178.883V291H178.001V283.776H179.177L181.865 290.006ZM189.396 291.196C189.06 291.196 188.752 291.154 188.458 291.084C188.164 291 187.898 290.874 187.688 290.692C187.464 290.524 187.296 290.3 187.17 290.034C187.044 289.768 186.974 289.46 186.974 289.096C186.974 288.592 187.086 288.2 187.31 287.906C187.534 287.626 187.828 287.416 188.206 287.262C188.57 287.108 188.99 287.01 189.452 286.94L190.852 286.772C191.034 286.758 191.188 286.73 191.342 286.702C191.482 286.674 191.594 286.618 191.692 286.548C191.79 286.478 191.86 286.394 191.916 286.268C191.958 286.142 191.986 285.988 191.986 285.792C191.986 285.498 191.944 285.246 191.846 285.05C191.748 284.868 191.608 284.714 191.44 284.602C191.258 284.49 191.062 284.406 190.838 284.364C190.6 284.322 190.362 284.308 190.096 284.308C189.536 284.308 189.074 284.434 188.724 284.7C188.374 284.966 188.178 285.4 188.164 285.988H187.282C187.338 285.134 187.632 284.518 188.164 284.14C188.682 283.762 189.368 283.566 190.208 283.566C190.53 283.566 190.838 283.594 191.16 283.65C191.482 283.72 191.762 283.832 192.014 284C192.266 284.168 192.476 284.406 192.63 284.7C192.784 285.008 192.868 285.4 192.868 285.89V289.726C192.868 290.076 193.036 290.258 193.386 290.258C193.498 290.258 193.596 290.244 193.666 290.202V290.944L193.4 290.986C193.316 291 193.218 291 193.092 291C192.868 291 192.686 290.972 192.56 290.902C192.42 290.846 192.308 290.762 192.238 290.65C192.168 290.538 192.112 290.398 192.098 290.244C192.07 290.09 192.056 289.922 192.056 289.74H192.028C191.874 289.978 191.706 290.174 191.552 290.356C191.384 290.538 191.202 290.692 191.006 290.818C190.796 290.944 190.572 291.028 190.306 291.098C190.04 291.168 189.746 291.196 189.396 291.196ZM189.466 290.468C189.802 290.468 190.124 290.412 190.432 290.314C190.74 290.216 191.006 290.062 191.244 289.866C191.468 289.67 191.65 289.432 191.79 289.152C191.916 288.872 191.986 288.55 191.986 288.2V287.052H191.958C191.902 287.15 191.79 287.234 191.636 287.276C191.482 287.318 191.342 287.36 191.216 287.374C190.838 287.444 190.46 287.5 190.068 287.542C189.662 287.598 189.298 287.682 188.976 287.78C188.654 287.878 188.388 288.032 188.178 288.228C187.968 288.424 187.856 288.69 187.856 289.04C187.856 289.264 187.898 289.46 187.996 289.628C188.08 289.81 188.192 289.95 188.346 290.076C188.5 290.202 188.668 290.3 188.864 290.37C189.046 290.44 189.256 290.468 189.466 290.468ZM195.438 285.148H195.466C195.676 284.644 196.012 284.252 196.474 283.972C196.936 283.706 197.454 283.566 198.042 283.566C198.588 283.566 199.078 283.664 199.484 283.874C199.89 284.084 200.226 284.35 200.492 284.7C200.758 285.05 200.968 285.456 201.094 285.918C201.22 286.38 201.29 286.87 201.29 287.388C201.29 287.906 201.22 288.396 201.094 288.858C200.968 289.32 200.758 289.712 200.492 290.062C200.226 290.412 199.89 290.692 199.484 290.888C199.078 291.098 198.588 291.196 198.042 291.196C197.776 291.196 197.51 291.168 197.258 291.098C196.992 291.028 196.754 290.93 196.53 290.804C196.306 290.678 196.11 290.51 195.942 290.314C195.76 290.118 195.634 289.894 195.536 289.628H195.508V293.66H194.626V283.776H195.438V285.148ZM198.042 290.468C198.462 290.468 198.826 290.37 199.12 290.188C199.414 290.006 199.666 289.782 199.862 289.488C200.044 289.194 200.184 288.872 200.282 288.494C200.366 288.13 200.408 287.766 200.408 287.388C200.408 287.01 200.366 286.646 200.282 286.268C200.184 285.904 200.044 285.582 199.862 285.288C199.666 284.994 199.414 284.756 199.12 284.574C198.826 284.392 198.462 284.308 198.042 284.308C197.552 284.308 197.146 284.392 196.824 284.56C196.502 284.728 196.236 284.952 196.04 285.232C195.844 285.512 195.704 285.834 195.634 286.212C195.55 286.59 195.508 286.982 195.508 287.388C195.508 287.766 195.55 288.13 195.648 288.494C195.732 288.872 195.872 289.194 196.082 289.488C196.278 289.782 196.544 290.006 196.866 290.188C197.188 290.37 197.58 290.468 198.042 290.468Z" fill="white"/>
<path d="M243.009 291.196C242.673 291.196 242.365 291.154 242.071 291.084C241.777 291 241.511 290.874 241.301 290.692C241.077 290.524 240.909 290.3 240.783 290.034C240.657 289.768 240.587 289.46 240.587 289.096C240.587 288.592 240.699 288.2 240.923 287.906C241.147 287.626 241.441 287.416 241.819 287.262C242.183 287.108 242.603 287.01 243.065 286.94L244.465 286.772C244.647 286.758 244.801 286.73 244.955 286.702C245.095 286.674 245.207 286.618 245.305 286.548C245.403 286.478 245.473 286.394 245.529 286.268C245.571 286.142 245.599 285.988 245.599 285.792C245.599 285.498 245.557 285.246 245.459 285.05C245.361 284.868 245.221 284.714 245.053 284.602C244.871 284.49 244.675 284.406 244.451 284.364C244.213 284.322 243.975 284.308 243.709 284.308C243.149 284.308 242.687 284.434 242.337 284.7C241.987 284.966 241.791 285.4 241.777 285.988H240.895C240.951 285.134 241.245 284.518 241.777 284.14C242.295 283.762 242.981 283.566 243.821 283.566C244.143 283.566 244.451 283.594 244.773 283.65C245.095 283.72 245.375 283.832 245.627 284C245.879 284.168 246.089 284.406 246.243 284.7C246.397 285.008 246.481 285.4 246.481 285.89V289.726C246.481 290.076 246.649 290.258 246.999 290.258C247.111 290.258 247.209 290.244 247.279 290.202V290.944L247.013 290.986C246.929 291 246.831 291 246.705 291C246.481 291 246.299 290.972 246.173 290.902C246.033 290.846 245.921 290.762 245.851 290.65C245.781 290.538 245.725 290.398 245.711 290.244C245.683 290.09 245.669 289.922 245.669 289.74H245.641C245.487 289.978 245.319 290.174 245.165 290.356C244.997 290.538 244.815 290.692 244.619 290.818C244.409 290.944 244.185 291.028 243.919 291.098C243.653 291.168 243.359 291.196 243.009 291.196ZM243.079 290.468C243.415 290.468 243.737 290.412 244.045 290.314C244.353 290.216 244.619 290.062 244.857 289.866C245.081 289.67 245.263 289.432 245.403 289.152C245.529 288.872 245.599 288.55 245.599 288.2V287.052H245.571C245.515 287.15 245.403 287.234 245.249 287.276C245.095 287.318 244.955 287.36 244.829 287.374C244.451 287.444 244.073 287.5 243.681 287.542C243.275 287.598 242.911 287.682 242.589 287.78C242.267 287.878 242.001 288.032 241.791 288.228C241.581 288.424 241.469 288.69 241.469 289.04C241.469 289.264 241.511 289.46 241.609 289.628C241.693 289.81 241.805 289.95 241.959 290.076C242.113 290.202 242.281 290.3 242.477 290.37C242.659 290.44 242.869 290.468 243.079 290.468ZM253.992 291H253.11V284.518H249.106V291H248.224V283.776H253.992V291ZM256.474 285.148H256.502C256.712 284.644 257.048 284.252 257.51 283.972C257.972 283.706 258.49 283.566 259.078 283.566C259.624 283.566 260.114 283.664 260.52 283.874C260.926 284.084 261.262 284.35 261.528 284.7C261.794 285.05 262.004 285.456 262.13 285.918C262.256 286.38 262.326 286.87 262.326 287.388C262.326 287.906 262.256 288.396 262.13 288.858C262.004 289.32 261.794 289.712 261.528 290.062C261.262 290.412 260.926 290.692 260.52 290.888C260.114 291.098 259.624 291.196 259.078 291.196C258.812 291.196 258.546 291.168 258.294 291.098C258.028 291.028 257.79 290.93 257.566 290.804C257.342 290.678 257.146 290.51 256.978 290.314C256.796 290.118 256.67 289.894 256.572 289.628H256.544V293.66H255.662V283.776H256.474V285.148ZM259.078 290.468C259.498 290.468 259.862 290.37 260.156 290.188C260.45 290.006 260.702 289.782 260.898 289.488C261.08 289.194 261.22 288.872 261.318 288.494C261.402 288.13 261.444 287.766 261.444 287.388C261.444 287.01 261.402 286.646 261.318 286.268C261.22 285.904 261.08 285.582 260.898 285.288C260.702 284.994 260.45 284.756 260.156 284.574C259.862 284.392 259.498 284.308 259.078 284.308C258.588 284.308 258.182 284.392 257.86 284.56C257.538 284.728 257.272 284.952 257.076 285.232C256.88 285.512 256.74 285.834 256.67 286.212C256.586 286.59 256.544 286.982 256.544 287.388C256.544 287.766 256.586 288.13 256.684 288.494C256.768 288.872 256.908 289.194 257.118 289.488C257.314 289.782 257.58 290.006 257.902 290.188C258.224 290.37 258.616 290.468 259.078 290.468Z" fill="white"/>
<path d="M306.077 290.006L308.737 283.776H309.913V291H309.031V285.05H308.989L306.455 291H305.671L303.137 285.05H303.095V291H302.213V283.776H303.389L306.077 290.006ZM313.608 291.196C313.272 291.196 312.964 291.154 312.67 291.084C312.376 291 312.11 290.874 311.9 290.692C311.676 290.524 311.508 290.3 311.382 290.034C311.256 289.768 311.186 289.46 311.186 289.096C311.186 288.592 311.298 288.2 311.522 287.906C311.746 287.626 312.04 287.416 312.418 287.262C312.782 287.108 313.202 287.01 313.664 286.94L315.064 286.772C315.246 286.758 315.4 286.73 315.554 286.702C315.694 286.674 315.806 286.618 315.904 286.548C316.002 286.478 316.072 286.394 316.128 286.268C316.17 286.142 316.198 285.988 316.198 285.792C316.198 285.498 316.156 285.246 316.058 285.05C315.96 284.868 315.82 284.714 315.652 284.602C315.47 284.49 315.274 284.406 315.05 284.364C314.812 284.322 314.574 284.308 314.308 284.308C313.748 284.308 313.286 284.434 312.936 284.7C312.586 284.966 312.39 285.4 312.376 285.988H311.494C311.55 285.134 311.844 284.518 312.376 284.14C312.894 283.762 313.58 283.566 314.42 283.566C314.742 283.566 315.05 283.594 315.372 283.65C315.694 283.72 315.974 283.832 316.226 284C316.478 284.168 316.688 284.406 316.842 284.7C316.996 285.008 317.08 285.4 317.08 285.89V289.726C317.08 290.076 317.248 290.258 317.598 290.258C317.71 290.258 317.808 290.244 317.878 290.202V290.944L317.612 290.986C317.528 291 317.43 291 317.304 291C317.08 291 316.898 290.972 316.772 290.902C316.632 290.846 316.52 290.762 316.45 290.65C316.38 290.538 316.324 290.398 316.31 290.244C316.282 290.09 316.268 289.922 316.268 289.74H316.24C316.086 289.978 315.918 290.174 315.764 290.356C315.596 290.538 315.414 290.692 315.218 290.818C315.008 290.944 314.784 291.028 314.518 291.098C314.252 291.168 313.958 291.196 313.608 291.196ZM313.678 290.468C314.014 290.468 314.336 290.412 314.644 290.314C314.952 290.216 315.218 290.062 315.456 289.866C315.68 289.67 315.862 289.432 316.002 289.152C316.128 288.872 316.198 288.55 316.198 288.2V287.052H316.17C316.114 287.15 316.002 287.234 315.848 287.276C315.694 287.318 315.554 287.36 315.428 287.374C315.05 287.444 314.672 287.5 314.28 287.542C313.874 287.598 313.51 287.682 313.188 287.78C312.866 287.878 312.6 288.032 312.39 288.228C312.18 288.424 312.068 288.69 312.068 289.04C312.068 289.264 312.11 289.46 312.208 289.628C312.292 289.81 312.404 289.95 312.558 290.076C312.712 290.202 312.88 290.3 313.076 290.37C313.258 290.44 313.468 290.468 313.678 290.468ZM321.778 282.712C321.19 282.712 320.728 282.558 320.406 282.236C320.084 281.928 319.874 281.48 319.804 280.892H320.35C320.392 281.242 320.546 281.522 320.798 281.732C321.036 281.942 321.372 282.04 321.792 282.04C322.198 282.04 322.52 281.942 322.786 281.732C323.038 281.536 323.206 281.256 323.276 280.892H323.822C323.724 281.48 323.5 281.928 323.164 282.236C322.828 282.558 322.366 282.712 321.778 282.712ZM319.706 289.964L323.696 283.776H324.788V291H323.906V284.812L319.916 291H318.824V283.776H319.706V289.964Z" fill="white"/>
<path d="M367.925 289.964L371.915 283.776H373.007V291H372.125V284.812L368.135 291H367.043V283.776H367.925V289.964ZM380.468 291.196C379.978 291.196 379.53 291.098 379.124 290.916C378.718 290.734 378.382 290.468 378.102 290.146C377.808 289.824 377.584 289.446 377.43 289.012C377.262 288.578 377.164 288.102 377.15 287.612H375.54V291H374.658V283.776H375.54V286.87H377.178C377.22 286.408 377.332 285.988 377.514 285.582C377.682 285.176 377.906 284.826 378.186 284.532C378.466 284.238 378.802 284 379.18 283.818C379.558 283.65 379.992 283.566 380.468 283.566C380.986 283.566 381.448 283.664 381.854 283.874C382.26 284.084 382.61 284.35 382.904 284.7C383.184 285.05 383.408 285.456 383.562 285.918C383.716 286.38 383.786 286.87 383.786 287.388C383.786 287.906 383.716 288.396 383.562 288.858C383.408 289.32 383.184 289.726 382.904 290.076C382.61 290.426 382.26 290.692 381.854 290.888C381.448 291.098 380.986 291.196 380.468 291.196ZM380.468 290.468C380.846 290.468 381.196 290.384 381.504 290.202C381.798 290.02 382.064 289.796 382.274 289.502C382.484 289.208 382.638 288.886 382.75 288.508C382.848 288.144 382.904 287.766 382.904 287.388C382.904 287.01 382.848 286.632 382.75 286.254C382.638 285.89 382.484 285.568 382.274 285.274C382.064 284.98 381.798 284.756 381.504 284.574C381.196 284.392 380.846 284.308 380.468 284.308C380.09 284.308 379.74 284.392 379.446 284.574C379.138 284.756 378.886 284.98 378.676 285.274C378.466 285.568 378.298 285.89 378.2 286.254C378.088 286.632 378.032 287.01 378.032 287.388C378.032 287.766 378.088 288.144 378.2 288.508C378.298 288.886 378.466 289.208 378.676 289.502C378.886 289.796 379.138 290.02 379.446 290.202C379.74 290.384 380.09 290.468 380.468 290.468ZM385.972 286.842H390.074V283.776H390.956V291H390.074V287.584H385.972V291H385.09V283.776H385.972V286.842Z" fill="white"/>
<path d="M426.727 289.964L430.717 283.776H431.809V291H430.927V284.812L426.937 291H425.845V283.776H426.727V289.964ZM439.27 291.196C438.78 291.196 438.332 291.098 437.926 290.916C437.52 290.734 437.184 290.468 436.904 290.146C436.61 289.824 436.386 289.446 436.232 289.012C436.064 288.578 435.966 288.102 435.952 287.612H434.342V291H433.46V283.776H434.342V286.87H435.98C436.022 286.408 436.134 285.988 436.316 285.582C436.484 285.176 436.708 284.826 436.988 284.532C437.268 284.238 437.604 284 437.982 283.818C438.36 283.65 438.794 283.566 439.27 283.566C439.788 283.566 440.25 283.664 440.656 283.874C441.062 284.084 441.412 284.35 441.706 284.7C441.986 285.05 442.21 285.456 442.364 285.918C442.518 286.38 442.588 286.87 442.588 287.388C442.588 287.906 442.518 288.396 442.364 288.858C442.21 289.32 441.986 289.726 441.706 290.076C441.412 290.426 441.062 290.692 440.656 290.888C440.25 291.098 439.788 291.196 439.27 291.196ZM439.27 290.468C439.648 290.468 439.998 290.384 440.306 290.202C440.6 290.02 440.866 289.796 441.076 289.502C441.286 289.208 441.44 288.886 441.552 288.508C441.65 288.144 441.706 287.766 441.706 287.388C441.706 287.01 441.65 286.632 441.552 286.254C441.44 285.89 441.286 285.568 441.076 285.274C440.866 284.98 440.6 284.756 440.306 284.574C439.998 284.392 439.648 284.308 439.27 284.308C438.892 284.308 438.542 284.392 438.248 284.574C437.94 284.756 437.688 284.98 437.478 285.274C437.268 285.568 437.1 285.89 437.002 286.254C436.89 286.632 436.834 287.01 436.834 287.388C436.834 287.766 436.89 288.144 437.002 288.508C437.1 288.886 437.268 289.208 437.478 289.502C437.688 289.796 437.94 290.02 438.248 290.202C438.542 290.384 438.892 290.468 439.27 290.468ZM443.821 291.07C443.779 291.07 443.723 291.07 443.653 291.056L443.457 291.028C443.387 291.014 443.317 291.014 443.261 290.986C443.191 290.972 443.149 290.972 443.121 290.958V290.188C443.191 290.216 443.303 290.244 443.457 290.258C443.611 290.272 443.737 290.286 443.835 290.286C443.933 290.286 444.031 290.272 444.143 290.244C444.255 290.216 444.367 290.132 444.479 290.006C444.591 289.88 444.703 289.684 444.801 289.418C444.899 289.152 444.997 288.774 445.067 288.284C445.137 287.808 445.207 287.206 445.249 286.464C445.291 285.736 445.319 284.84 445.319 283.776H450.149V291H449.267V284.518H446.173C446.173 285.568 446.145 286.45 446.089 287.178C446.019 287.906 445.935 288.508 445.823 288.998C445.711 289.488 445.585 289.866 445.431 290.146C445.277 290.426 445.123 290.636 444.955 290.762C444.773 290.902 444.591 290.986 444.409 291.028C444.213 291.056 444.017 291.07 443.821 291.07Z" fill="white"/>
<path d="M490.821 291.196C490.485 291.196 490.177 291.154 489.883 291.084C489.589 291 489.323 290.874 489.113 290.692C488.889 290.524 488.721 290.3 488.595 290.034C488.469 289.768 488.399 289.46 488.399 289.096C488.399 288.592 488.511 288.2 488.735 287.906C488.959 287.626 489.253 287.416 489.631 287.262C489.995 287.108 490.415 287.01 490.877 286.94L492.277 286.772C492.459 286.758 492.613 286.73 492.767 286.702C492.907 286.674 493.019 286.618 493.117 286.548C493.215 286.478 493.285 286.394 493.341 286.268C493.383 286.142 493.411 285.988 493.411 285.792C493.411 285.498 493.369 285.246 493.271 285.05C493.173 284.868 493.033 284.714 492.865 284.602C492.683 284.49 492.487 284.406 492.263 284.364C492.025 284.322 491.787 284.308 491.521 284.308C490.961 284.308 490.499 284.434 490.149 284.7C489.799 284.966 489.603 285.4 489.589 285.988H488.707C488.763 285.134 489.057 284.518 489.589 284.14C490.107 283.762 490.793 283.566 491.633 283.566C491.955 283.566 492.263 283.594 492.585 283.65C492.907 283.72 493.187 283.832 493.439 284C493.691 284.168 493.901 284.406 494.055 284.7C494.209 285.008 494.293 285.4 494.293 285.89V289.726C494.293 290.076 494.461 290.258 494.811 290.258C494.923 290.258 495.021 290.244 495.091 290.202V290.944L494.825 290.986C494.741 291 494.643 291 494.517 291C494.293 291 494.111 290.972 493.985 290.902C493.845 290.846 493.733 290.762 493.663 290.65C493.593 290.538 493.537 290.398 493.523 290.244C493.495 290.09 493.481 289.922 493.481 289.74H493.453C493.299 289.978 493.131 290.174 492.977 290.356C492.809 290.538 492.627 290.692 492.431 290.818C492.221 290.944 491.997 291.028 491.731 291.098C491.465 291.168 491.171 291.196 490.821 291.196ZM490.891 290.468C491.227 290.468 491.549 290.412 491.857 290.314C492.165 290.216 492.431 290.062 492.669 289.866C492.893 289.67 493.075 289.432 493.215 289.152C493.341 288.872 493.411 288.55 493.411 288.2V287.052H493.383C493.327 287.15 493.215 287.234 493.061 287.276C492.907 287.318 492.767 287.36 492.641 287.374C492.263 287.444 491.885 287.5 491.493 287.542C491.087 287.598 490.723 287.682 490.401 287.78C490.079 287.878 489.813 288.032 489.603 288.228C489.393 288.424 489.281 288.69 489.281 289.04C489.281 289.264 489.323 289.46 489.421 289.628C489.505 289.81 489.617 289.95 489.771 290.076C489.925 290.202 490.093 290.3 490.289 290.37C490.471 290.44 490.681 290.468 490.891 290.468ZM499.341 283.776C500.083 283.776 500.643 283.916 501.049 284.21C501.455 284.504 501.651 284.924 501.651 285.484C501.651 285.918 501.539 286.268 501.329 286.562C501.105 286.856 500.797 287.052 500.405 287.164V287.192C500.881 287.276 501.259 287.458 501.525 287.752C501.791 288.046 501.931 288.452 501.931 288.984C501.931 289.642 501.707 290.132 501.273 290.482C500.839 290.832 500.195 291 499.341 291H496.037V283.776H499.341ZM499.243 286.898C499.747 286.898 500.125 286.786 500.391 286.576C500.643 286.366 500.769 286.072 500.769 285.708C500.769 284.91 500.265 284.518 499.243 284.518H496.919V286.898H499.243ZM499.243 290.258C499.859 290.258 500.321 290.146 500.615 289.908C500.909 289.684 501.049 289.348 501.049 288.886C501.049 288.466 500.909 288.144 500.615 287.92C500.321 287.696 499.859 287.584 499.243 287.584H496.919V290.258H499.243ZM508.127 284.518H504.235V291H503.353V283.776H508.127V284.518Z" fill="white"/>
<path d="M554.872 291.196C554.326 291.196 553.836 291.098 553.416 290.888C552.982 290.692 552.632 290.426 552.338 290.076C552.044 289.726 551.834 289.32 551.68 288.858C551.526 288.396 551.456 287.906 551.456 287.388C551.456 286.87 551.526 286.38 551.68 285.918C551.834 285.456 552.044 285.05 552.338 284.7C552.632 284.35 552.982 284.084 553.416 283.874C553.836 283.664 554.326 283.566 554.872 283.566C555.642 283.566 556.3 283.776 556.846 284.182C557.378 284.588 557.7 285.218 557.798 286.044H556.916C556.79 285.498 556.566 285.078 556.244 284.77C555.922 284.462 555.46 284.308 554.872 284.308C554.452 284.308 554.088 284.392 553.766 284.574C553.444 284.756 553.192 284.98 552.982 285.274C552.772 285.568 552.604 285.89 552.506 286.254C552.394 286.632 552.338 287.01 552.338 287.388C552.338 287.766 552.394 288.144 552.506 288.508C552.604 288.886 552.772 289.208 552.982 289.502C553.192 289.796 553.444 290.02 553.766 290.202C554.088 290.384 554.452 290.468 554.872 290.468C555.138 290.468 555.404 290.412 555.642 290.314C555.88 290.216 556.104 290.062 556.286 289.88C556.468 289.698 556.622 289.488 556.748 289.236C556.874 288.984 556.944 288.704 556.972 288.41H557.854C557.728 289.292 557.406 289.964 556.888 290.454C556.37 290.944 555.698 291.196 554.872 291.196ZM561.978 291.196C561.404 291.196 560.9 291.098 560.494 290.888C560.088 290.692 559.752 290.412 559.486 290.062C559.22 289.712 559.038 289.32 558.912 288.858C558.786 288.396 558.716 287.906 558.716 287.388C558.716 286.912 558.786 286.45 558.912 285.988C559.038 285.526 559.22 285.12 559.486 284.756C559.752 284.406 560.088 284.112 560.494 283.888C560.9 283.678 561.404 283.566 561.978 283.566C562.552 283.566 563.056 283.678 563.462 283.916C563.868 284.154 564.204 284.448 564.47 284.826C564.722 285.204 564.904 285.638 565.016 286.128C565.128 286.618 565.17 287.122 565.156 287.626H559.598C559.598 287.948 559.64 288.284 559.738 288.62C559.822 288.956 559.962 289.264 560.158 289.53C560.354 289.796 560.606 290.02 560.9 290.202C561.194 290.384 561.558 290.468 561.978 290.468C562.622 290.468 563.126 290.3 563.49 289.964C563.854 289.628 564.106 289.18 564.246 288.62H565.128C564.946 289.446 564.596 290.076 564.106 290.524C563.602 290.972 562.888 291.196 561.978 291.196ZM564.274 286.884C564.26 286.548 564.204 286.226 564.106 285.918C563.994 285.61 563.84 285.33 563.644 285.092C563.448 284.854 563.21 284.672 562.93 284.518C562.65 284.378 562.328 284.308 561.978 284.308C561.614 284.308 561.292 284.378 561.012 284.518C560.732 284.672 560.494 284.854 560.298 285.092C560.102 285.33 559.948 285.61 559.836 285.918C559.71 286.24 559.64 286.562 559.598 286.884H564.274ZM567.208 286.842H571.31V283.776H572.192V291H571.31V287.584H567.208V291H566.326V283.776H567.208V286.842Z" fill="white"/>
<path d="M617.413 291.196C616.867 291.196 616.377 291.098 615.957 290.888C615.523 290.692 615.173 290.426 614.879 290.076C614.585 289.726 614.375 289.32 614.221 288.858C614.067 288.396 613.997 287.906 613.997 287.388C613.997 286.87 614.067 286.38 614.221 285.918C614.375 285.456 614.585 285.05 614.879 284.7C615.173 284.35 615.523 284.084 615.957 283.874C616.377 283.664 616.867 283.566 617.413 283.566C617.959 283.566 618.449 283.664 618.883 283.874C619.303 284.084 619.653 284.35 619.947 284.7C620.241 285.05 620.451 285.456 620.605 285.918C620.759 286.38 620.829 286.87 620.829 287.388C620.829 287.906 620.759 288.396 620.605 288.858C620.451 289.32 620.241 289.726 619.947 290.076C619.653 290.426 619.303 290.692 618.883 290.888C618.449 291.098 617.959 291.196 617.413 291.196ZM617.413 290.468C617.833 290.468 618.197 290.384 618.519 290.202C618.841 290.02 619.107 289.796 619.317 289.502C619.527 289.208 619.681 288.886 619.793 288.508C619.891 288.144 619.947 287.766 619.947 287.388C619.947 287.01 619.891 286.632 619.793 286.254C619.681 285.89 619.527 285.568 619.317 285.274C619.107 284.98 618.841 284.756 618.519 284.574C618.197 284.392 617.833 284.308 617.413 284.308C616.993 284.308 616.629 284.392 616.307 284.574C615.985 284.756 615.733 284.98 615.523 285.274C615.313 285.568 615.145 285.89 615.047 286.254C614.935 286.632 614.879 287.01 614.879 287.388C614.879 287.766 614.935 288.144 615.047 288.508C615.145 288.886 615.313 289.208 615.523 289.502C615.733 289.796 615.985 290.02 616.307 290.202C616.629 290.384 616.993 290.468 617.413 290.468ZM623.022 287.486L627.026 283.776H628.202L625.136 286.604L628.384 291H627.278L624.492 287.206L623.022 288.564V291H622.14V283.776H623.022V287.486ZM628.258 283.776H634.488V284.518H631.814V291H630.932V284.518H628.258V283.776Z" fill="white"/>
<path d="M676.518 286.842H680.62V283.776H681.502V291H680.62V287.584H676.518V291H675.636V283.776H676.518V286.842ZM686.221 291.196C685.675 291.196 685.185 291.098 684.765 290.888C684.331 290.692 683.981 290.426 683.687 290.076C683.393 289.726 683.183 289.32 683.029 288.858C682.875 288.396 682.805 287.906 682.805 287.388C682.805 286.87 682.875 286.38 683.029 285.918C683.183 285.456 683.393 285.05 683.687 284.7C683.981 284.35 684.331 284.084 684.765 283.874C685.185 283.664 685.675 283.566 686.221 283.566C686.767 283.566 687.257 283.664 687.691 283.874C688.111 284.084 688.461 284.35 688.755 284.7C689.049 285.05 689.259 285.456 689.413 285.918C689.567 286.38 689.637 286.87 689.637 287.388C689.637 287.906 689.567 288.396 689.413 288.858C689.259 289.32 689.049 289.726 688.755 290.076C688.461 290.426 688.111 290.692 687.691 290.888C687.257 291.098 686.767 291.196 686.221 291.196ZM686.221 290.468C686.641 290.468 687.005 290.384 687.327 290.202C687.649 290.02 687.915 289.796 688.125 289.502C688.335 289.208 688.489 288.886 688.601 288.508C688.699 288.144 688.755 287.766 688.755 287.388C688.755 287.01 688.699 286.632 688.601 286.254C688.489 285.89 688.335 285.568 688.125 285.274C687.915 284.98 687.649 284.756 687.327 284.574C687.005 284.392 686.641 284.308 686.221 284.308C685.801 284.308 685.437 284.392 685.115 284.574C684.793 284.756 684.541 284.98 684.331 285.274C684.121 285.568 683.953 285.89 683.855 286.254C683.743 286.632 683.687 287.01 683.687 287.388C683.687 287.766 683.743 288.144 683.855 288.508C683.953 288.886 684.121 289.208 684.331 289.502C684.541 289.796 684.793 290.02 685.115 290.202C685.437 290.384 685.801 290.468 686.221 290.468ZM692.782 288.074C692.138 288.032 691.634 287.808 691.256 287.43C690.878 287.052 690.682 286.562 690.682 285.932C690.682 285.61 690.738 285.316 690.836 285.05C690.934 284.784 691.088 284.56 691.27 284.378C691.452 284.196 691.69 284.042 691.956 283.93C692.222 283.832 692.53 283.776 692.866 283.776H696.366V291H695.484V288.13H693.776L691.298 291H690.15L692.782 288.074ZM693.076 284.518C692.586 284.518 692.222 284.644 691.956 284.91C691.69 285.176 691.564 285.526 691.564 285.946C691.564 286.366 691.69 286.716 691.956 286.982C692.222 287.248 692.586 287.388 693.076 287.388H695.484V284.518H693.076Z" fill="white"/>
<path d="M736.83 290.258C737.18 289.614 737.432 288.844 737.586 287.962C737.74 287.08 737.824 286.002 737.824 284.728V283.776H742.682V290.258H743.76V293.296H742.878V291H736.858V293.296H735.976V290.258H736.83ZM738.678 284.518V285.022C738.678 286.24 738.594 287.276 738.412 288.144C738.23 289.026 738.006 289.726 737.74 290.258H741.8V284.518H738.678ZM747.614 291.196C747.04 291.196 746.536 291.098 746.13 290.888C745.724 290.692 745.388 290.412 745.122 290.062C744.856 289.712 744.674 289.32 744.548 288.858C744.422 288.396 744.352 287.906 744.352 287.388C744.352 286.912 744.422 286.45 744.548 285.988C744.674 285.526 744.856 285.12 745.122 284.756C745.388 284.406 745.724 284.112 746.13 283.888C746.536 283.678 747.04 283.566 747.614 283.566C748.188 283.566 748.692 283.678 749.098 283.916C749.504 284.154 749.84 284.448 750.106 284.826C750.358 285.204 750.54 285.638 750.652 286.128C750.764 286.618 750.806 287.122 750.792 287.626H745.234C745.234 287.948 745.276 288.284 745.374 288.62C745.458 288.956 745.598 289.264 745.794 289.53C745.99 289.796 746.242 290.02 746.536 290.202C746.83 290.384 747.194 290.468 747.614 290.468C748.258 290.468 748.762 290.3 749.126 289.964C749.49 289.628 749.742 289.18 749.882 288.62H750.764C750.582 289.446 750.232 290.076 749.742 290.524C749.238 290.972 748.524 291.196 747.614 291.196ZM749.91 286.884C749.896 286.548 749.84 286.226 749.742 285.918C749.63 285.61 749.476 285.33 749.28 285.092C749.084 284.854 748.846 284.672 748.566 284.518C748.286 284.378 747.964 284.308 747.614 284.308C747.25 284.308 746.928 284.378 746.648 284.518C746.368 284.672 746.13 284.854 745.934 285.092C745.738 285.33 745.584 285.61 745.472 285.918C745.346 286.24 745.276 286.562 745.234 286.884H749.91ZM752.858 287.486L756.862 283.776H758.038L754.972 286.604L758.22 291H757.114L754.328 287.206L752.858 288.564V291H751.976V283.776H752.858V287.486Z" fill="white"/>
<line x1="64.9601" y1="126.502" x2="189.96" y2="116.502" stroke="white"/>
<line x1="64.9204" y1="187.506" x2="126.92" y2="177.506" stroke="#FFBB37"/>
<line x1="126.96" y1="177.502" x2="250.96" y2="167.502" stroke="#FFBB37"/>
<line x1="251" y1="167.5" x2="314" y2="167.5" stroke="#FFBB37"/>
<line x1="313.913" y1="167.508" x2="375.913" y2="156.508" stroke="#FFBB37"/>
<line x1="376" y1="156.5" x2="438" y2="156.5" stroke="#FFBB37"/>
<line x1="437.837" y1="156.527" x2="498.837" y2="135.527" stroke="#FFBB37"/>
<line x1="497.939" y1="135.504" x2="562.939" y2="127.504" stroke="#FFBB37"/>
<line x1="563" y1="127.5" x2="624" y2="127.5" stroke="#FFBB37"/>
<line x1="623.96" y1="127.502" x2="747.96" y2="117.502" stroke="#FFBB37"/>
<line x1="64.9204" y1="147.506" x2="126.92" y2="137.506" stroke="#DC0000"/>
<line x1="126.96" y1="137.502" x2="250.96" y2="127.502" stroke="#DC0000"/>
<line x1="251" y1="127.5" x2="314" y2="127.5" stroke="#DC0000"/>
<line x1="313.913" y1="127.508" x2="375.913" y2="116.508" stroke="#DC0000"/>
<line x1="376" y1="116.5" x2="438" y2="116.5" stroke="#DC0000"/>
<line x1="437.837" y1="116.527" x2="498.837" y2="95.5272" stroke="#DC0000"/>
<line x1="497.939" y1="95.5037" x2="562.939" y2="87.5037" stroke="#DC0000"/>
<line x1="563" y1="87.5" x2="624" y2="87.5" stroke="#DC0000"/>
<line x1="623.96" y1="87.5016" x2="747.96" y2="77.5016" stroke="#DC0000"/>
<line x1="65.9204" y1="157.506" x2="127.92" y2="147.506" stroke="#00FF19"/>
<line x1="127.96" y1="147.502" x2="251.96" y2="137.502" stroke="#00FF19"/>
<line x1="252" y1="137.5" x2="315" y2="137.5" stroke="#00FF19"/>
<line x1="314.913" y1="137.508" x2="376.913" y2="126.508" stroke="#00FF19"/>
<line x1="377" y1="126.5" x2="439" y2="126.5" stroke="#00FF19"/>
<line x1="438.837" y1="126.527" x2="499.837" y2="105.527" stroke="#00FF19"/>
<line x1="498.939" y1="105.504" x2="563.939" y2="97.5037" stroke="#00FF19"/>
<line x1="564" y1="97.5" x2="625" y2="97.5" stroke="#00FF19"/>
<line x1="624.96" y1="97.5016" x2="748.96" y2="87.5016" stroke="#00FF19"/>
<line x1="189" y1="116.5" x2="314" y2="116.5" stroke="white"/>
<line x1="313.928" y1="116.505" x2="375.928" y2="107.505" stroke="white"/>
<line x1="376.08" y1="107.506" x2="500.08" y2="127.506" stroke="white"/>
<line x1="497.892" y1="127.512" x2="623.892" y2="99.5119" stroke="white"/>
<line x1="623.952" y1="99.5023" x2="747.952" y2="87.5023" stroke="white"/>
</svg>
