<svg width="21" height="27" viewBox="0 0 21 27" fill="none" xmlns="http://www.w3.org/2000/svg">
<g clip-path="url(#clip0_62_130)">
<path d="M8.12903 8.96205V1.35001H19.6452V25.65H8.12903V17.7452" stroke="#FFBB37" stroke-width="3"/>
<path d="M16.0596 13.9773C16.3242 13.7137 16.3242 13.2863 16.0596 13.0227L11.7486 8.72702C11.484 8.46343 11.0551 8.46343 10.7905 8.72702C10.526 8.99067 10.526 9.41802 10.7905 9.6816L14.6226 13.5L10.7905 17.3184C10.526 17.582 10.526 18.0093 10.7905 18.273C11.0551 18.5366 11.484 18.5366 11.7486 18.273L16.0596 13.9773ZM1.44765e-07 14.175H15.5806V12.825H0L1.44765e-07 14.175Z" fill="#333339"/>
</g>
<defs>
<clipPath id="clip0_62_130">
<rect width="21" height="27" fill="white"/>
</clipPath>
</defs>
</svg>
