<svg width="88" height="69" viewBox="0 0 88 69" fill="none" xmlns="http://www.w3.org/2000/svg">
<path d="M44.4374 8.6514C45.1636 9.07391 45.6987 9.66925 46.0427 10.4374C46.4249 11.1672 46.6161 11.9737 46.6161 12.8571C46.6161 13.6252 46.4632 14.3934 46.1574 15.1615C45.8516 15.9297 45.4503 16.5634 44.9534 17.0627C40.5961 17.1395 36.4872 17.3316 32.6267 17.6388C32.4356 18.4454 32.0343 20.2313 31.4227 22.9967C31.3463 23.3424 31.0979 24.5522 30.6774 26.6262C34.7672 26.2806 37.9969 25.8197 40.3667 25.2436C41.1312 25.7045 41.7045 26.319 42.0867 27.0871C42.5072 27.8169 42.7174 28.6235 42.7174 29.5068C42.7174 30.3134 42.5454 31.0816 42.2014 31.8113C41.8956 32.5026 41.4561 33.0596 40.8827 33.482C40.1565 33.5589 39.4303 33.6165 38.7041 33.6549C38.0161 33.6933 37.3472 33.7317 36.6974 33.7701L29.5307 34.2886C29.2249 36.2474 28.9192 38.5711 28.6134 41.2596C28.2694 44.1402 27.9636 46.1566 27.6961 47.3088C27.4285 48.4227 26.9889 48.9796 26.3774 48.9796C25.4219 48.9796 24.3325 48.6531 23.1094 48.0002C21.9245 47.3088 20.8925 46.5215 20.0134 45.6381C19.1725 44.7163 18.7521 43.9673 18.7521 43.3912C18.7521 42.8151 18.9432 41.5477 19.3254 39.5889C19.7459 37.6301 20.2045 35.5177 20.7014 33.2516C22.4214 25.8005 23.4343 20.6922 23.7401 17.9269L21.3321 18.0997C20.6059 17.7157 20.0134 17.1588 19.5547 16.429C19.1343 15.6609 18.9241 14.8351 18.9241 13.9517C18.9241 12.4154 19.5165 11.0519 20.7014 9.86125C25.9379 9.78448 30.4863 9.66925 34.3467 9.51558C38.2454 9.36197 41.6089 9.07391 44.4374 8.6514ZM63.1052 22.9967C63.411 21.0764 63.5639 19.54 63.5639 18.3878C63.5639 17.5812 63.4875 16.9475 63.3345 16.4866C63.2199 16.0257 63.067 15.7952 62.8759 15.7952C62.3025 15.7952 61.6337 16.2754 60.8692 17.2355C60.143 18.1958 59.5123 19.348 58.9772 20.6922C58.4803 21.9981 58.2319 23.1695 58.2319 24.2065C58.2319 25.5125 58.8625 26.8375 60.1239 28.1818C61.4235 29.4877 63.3155 31.1008 65.7999 33.0211C67.6727 34.4038 69.068 35.556 69.9853 36.4778C70.9027 37.3612 71.38 38.1678 71.4187 38.8975C71.4567 40.5106 70.616 42.1046 68.896 43.6793C67.176 45.2156 65.0163 46.4831 62.4172 47.4817C59.8563 48.4803 57.4675 48.9796 55.2505 48.9796C53.5305 48.9796 51.7532 48.5571 49.9185 47.7121C48.0839 46.8288 46.555 45.8109 45.3319 44.6587C44.1088 43.4681 43.4781 42.4311 43.4399 41.5477C43.3635 39.8578 43.9177 38.4942 45.1025 37.4572C46.2875 36.3818 47.8737 35.8441 49.8612 35.8441C50.855 35.8441 51.8679 35.9785 52.8999 36.2474C53.3585 38.7823 53.7599 40.6067 54.1039 41.7205C56.359 41.1444 58.8052 40.1458 61.4425 38.7247C52.919 32.2338 48.6572 27.164 48.6572 23.5152C48.6572 21.7485 49.307 19.6361 50.6065 17.1779C51.9061 14.6815 53.6261 12.5498 55.7665 10.783C57.907 8.97791 60.1621 8.07529 62.5319 8.07529C64.2901 8.07529 65.991 8.67063 67.6347 9.86125C69.278 11.0519 70.616 12.5114 71.648 14.2397C72.68 15.9681 73.196 17.5812 73.196 19.0791C73.196 20.5386 72.6033 21.7101 71.4187 22.5934C70.272 23.4384 68.8387 23.8609 67.1187 23.8609C65.7808 23.8609 64.443 23.5728 63.1052 22.9967Z" fill="#333339"/>
<mask id="mask0_39_118" style="mask-type:luminance" maskUnits="userSpaceOnUse" x="16" y="5" width="60" height="46">
<path d="M75.3333 5.43588H16.6667V50.9893H75.3333V5.43588Z" fill="white"/>
<path d="M44.4374 8.6514C45.1636 9.07391 45.6987 9.66925 46.0427 10.4374C46.4249 11.1672 46.616 11.9737 46.616 12.8571C46.616 13.6252 46.4632 14.3934 46.1574 15.1615C45.8516 15.9297 45.4502 16.5634 44.9534 17.0627C40.596 17.1395 36.4872 17.3316 32.6267 17.6388C32.4356 18.4454 32.0342 20.2313 31.4227 22.9967C31.3462 23.3424 31.0978 24.5522 30.6774 26.6262C34.7672 26.2806 37.9969 25.8197 40.3667 25.2436C41.1312 25.7045 41.7045 26.319 42.0867 27.0871C42.5072 27.8169 42.7174 28.6235 42.7174 29.5068C42.7174 30.3134 42.5454 31.0816 42.2014 31.8113C41.8956 32.5026 41.456 33.0596 40.8827 33.482C40.1565 33.5589 39.4302 33.6165 38.704 33.6549C38.016 33.6933 37.3472 33.7317 36.6974 33.7701L29.5307 34.2886C29.2249 36.2474 28.9192 38.5711 28.6134 41.2596C28.2694 44.1402 27.9636 46.1566 27.696 47.3088C27.4285 48.4227 26.9889 48.9796 26.3774 48.9796C25.4218 48.9796 24.3325 48.6531 23.1094 48.0002C21.9245 47.3088 20.8925 46.5215 20.0134 45.6381C19.1725 44.7163 18.752 43.9673 18.752 43.3912C18.752 42.8151 18.9432 41.5477 19.3254 39.5889C19.7458 37.6301 20.2045 35.5177 20.7014 33.2516C22.4214 25.8005 23.4342 20.6922 23.74 17.9269L21.332 18.0997C20.6058 17.7157 20.0134 17.1588 19.5547 16.429C19.1342 15.6609 18.924 14.8351 18.924 13.9517C18.924 12.4154 19.5165 11.0519 20.7014 9.86125C25.9378 9.78448 30.4862 9.66925 34.3467 9.51558C38.2454 9.36197 41.6089 9.07391 44.4374 8.6514ZM63.1052 22.9967C63.411 21.0764 63.5639 19.54 63.5639 18.3878C63.5639 17.5812 63.4874 16.9475 63.3345 16.4866C63.2198 16.0257 63.067 15.7952 62.8758 15.7952C62.3025 15.7952 61.6336 16.2754 60.8692 17.2355C60.143 18.1958 59.5123 19.348 58.9772 20.6922C58.4803 21.9981 58.2318 23.1695 58.2318 24.2065C58.2318 25.5125 58.8625 26.8375 60.1238 28.1818C61.4234 29.4877 63.3154 31.1008 65.7998 33.0211C67.6726 34.4038 69.068 35.556 69.9853 36.4778C70.9026 37.3612 71.38 38.1678 71.4186 38.8975C71.4566 40.5106 70.616 42.1046 68.896 43.6793C67.176 45.2156 65.0163 46.4831 62.4172 47.4817C59.8563 48.4803 57.4674 48.9796 55.2505 48.9796C53.5305 48.9796 51.7532 48.5571 49.9185 47.7121C48.0838 46.8288 46.555 45.8109 45.3318 44.6587C44.1088 43.4681 43.4781 42.4311 43.4398 41.5477C43.3634 39.8578 43.9176 38.4942 45.1025 37.4572C46.2874 36.3818 47.8736 35.8441 49.8612 35.8441C50.855 35.8441 51.8678 35.9785 52.8998 36.2474C53.3585 38.7823 53.7598 40.6067 54.1038 41.7205C56.359 41.1444 58.8052 40.1458 61.4425 38.7247C52.919 32.2338 48.6572 27.164 48.6572 23.5152C48.6572 21.7485 49.307 19.6361 50.6065 17.1779C51.9061 14.6815 53.6261 12.5498 55.7665 10.783C57.907 8.97791 60.1621 8.07529 62.5318 8.07529C64.2901 8.07529 65.991 8.67063 67.6347 9.86125C69.278 11.0519 70.616 12.5114 71.648 14.2397C72.68 15.9681 73.196 17.5812 73.196 19.0791C73.196 20.5386 72.6033 21.7101 71.4186 22.5934C70.272 23.4384 68.8386 23.8609 67.1186 23.8609C65.7808 23.8609 64.443 23.5728 63.1052 22.9967Z" fill="black"/>
</mask>
<g mask="url(#mask0_39_118)">
<path d="M44.4374 8.65138L45.4394 6.91218L44.8346 6.56028L44.1433 6.66354L44.4374 8.65138ZM46.0427 10.4373L44.2188 11.2621L44.2442 11.3186L44.2728 11.3734L46.0427 10.4373ZM44.9534 17.0627L44.9884 19.0721L45.7962 19.0579L46.3676 18.4838L44.9534 17.0627ZM32.6267 17.6388L32.4688 15.6354L31.0181 15.7509L30.6811 17.1733L32.6267 17.6388ZM30.6774 26.6262L28.7176 26.2251L28.1847 28.8537L30.845 28.6289L30.6774 26.6262ZM40.3667 25.2435L41.3957 23.5203L40.693 23.0966L39.8964 23.2902L40.3667 25.2435ZM42.0867 27.0871L40.2978 27.9859L40.3252 28.0409L40.3558 28.094L42.0867 27.0871ZM42.2014 31.8113L40.3939 30.951L40.3836 30.9729L40.3738 30.9951L42.2014 31.8113ZM40.8827 33.482L41.092 35.4807L41.6296 35.4239L42.0654 35.1027L40.8827 33.482ZM38.704 33.6548L38.5989 31.6479L38.5931 31.6483L38.704 33.6548ZM36.6974 33.7701L36.5799 31.7638L36.5668 31.7646L36.5537 31.7656L36.6974 33.7701ZM29.5307 34.2886L29.387 32.2841L27.8012 32.3988L27.5548 33.9771L29.5307 34.2886ZM28.6134 41.2596L30.5991 41.4991L30.5998 41.4934L30.6004 41.4878L28.6134 41.2596ZM27.696 47.3088L29.6402 47.7804L29.642 47.773L29.6437 47.7655L27.696 47.3088ZM23.1094 48.0001L22.1051 49.7381L22.1377 49.7572L22.171 49.775L23.1094 48.0001ZM20.0134 45.6381L18.539 46.9961L18.5684 47.0283L18.5992 47.0592L20.0134 45.6381ZM19.3254 39.5888L17.3703 39.1651L17.3664 39.1836L17.3627 39.2022L19.3254 39.5888ZM20.7014 33.2516L18.7531 32.7975L18.7506 32.8083L18.7482 32.8191L20.7014 33.2516ZM23.74 17.9269L25.7278 18.1488L25.993 15.7503L23.5975 15.9223L23.74 17.9269ZM21.332 18.0997L20.4005 19.8782L20.9054 20.1452L21.4745 20.1043L21.332 18.0997ZM19.5547 16.429L17.8022 17.3975L17.8314 17.4508L17.8637 17.5021L19.5547 16.429ZM20.7014 9.86123L20.6722 7.85179L19.8609 7.86364L19.2872 8.44016L20.7014 9.86123ZM34.3467 9.51556L34.2683 7.50739L34.2676 7.50746L34.3467 9.51556ZM43.4353 10.3907C43.7994 10.6025 44.0469 10.8781 44.2188 11.2621L47.8666 9.61263C47.3505 8.46026 46.5277 7.54524 45.4394 6.91218L43.4353 10.3907ZM44.2728 11.3734C44.4932 11.7941 44.616 12.276 44.616 12.857H48.616C48.616 11.6714 48.3566 10.5401 47.8125 9.50135L44.2728 11.3734ZM44.616 12.857C44.616 13.3504 44.519 13.8659 44.3004 14.4152L48.0143 15.9079C48.4072 14.9208 48.616 13.9 48.616 12.857H44.616ZM44.3004 14.4152C44.0782 14.9734 43.8145 15.3649 43.5392 15.6416L46.3676 18.4838C47.086 17.7619 47.625 16.886 48.0143 15.9079L44.3004 14.4152ZM44.9183 15.0533C40.5249 15.1307 36.3748 15.3245 32.4688 15.6354L32.7846 19.6423C36.5995 19.3386 40.6671 19.1483 44.9884 19.0721L44.9183 15.0533ZM30.6811 17.1733C30.4858 17.9975 30.081 19.7992 29.4703 22.5607L33.375 23.4327C33.9875 20.6634 34.3854 18.8933 34.5723 18.1043L30.6811 17.1733ZM29.4703 22.5607C29.389 22.9286 29.1358 24.162 28.7176 26.2251L32.6371 27.0274C33.0598 24.9425 33.3036 23.7561 33.375 23.4327L29.4703 22.5607ZM30.845 28.6289C34.978 28.2795 38.3233 27.808 40.837 27.1969L39.8964 23.2902C37.6705 23.8313 34.5563 24.2816 30.5097 24.6236L30.845 28.6289ZM39.3377 26.9669C39.7908 27.24 40.0932 27.5748 40.2978 27.9859L43.8756 26.1884C43.3157 25.0632 42.4715 24.1689 41.3957 23.5203L39.3377 26.9669ZM40.3558 28.094C40.5914 28.503 40.7174 28.9595 40.7174 29.5068H44.7174C44.7174 28.2874 44.4228 27.1308 43.8176 26.0802L40.3558 28.094ZM40.7174 29.5068C40.7174 30.0155 40.6112 30.4898 40.3939 30.951L44.0088 32.6716C44.4794 31.6733 44.7174 30.6113 44.7174 29.5068H40.7174ZM40.3738 30.9951C40.2008 31.3859 39.9756 31.6583 39.7 31.8614L42.0654 35.1027C42.9365 34.4608 43.5903 33.6193 44.029 32.6275L40.3738 30.9951ZM40.6733 31.4833C39.9816 31.5565 39.2902 31.6114 38.5989 31.6479L38.8092 35.6618C39.5703 35.6215 40.3313 35.5612 41.092 35.4807L40.6733 31.4833ZM38.5931 31.6483C37.903 31.6868 37.232 31.7253 36.5799 31.7638L36.8148 35.7764C37.4623 35.738 38.129 35.6998 38.815 35.6615L38.5931 31.6483ZM36.5537 31.7656L29.387 32.2841L29.6743 36.2931L36.841 35.7746L36.5537 31.7656ZM27.5548 33.9771C27.2435 35.9715 26.9342 38.3243 26.6263 41.0314L30.6004 41.4878C30.9041 38.8178 31.2063 36.5233 31.5065 34.6L27.5548 33.9771ZM26.6276 41.0202C26.2834 43.9022 25.9882 45.8193 25.7484 46.8522L29.6437 47.7655C29.939 46.4939 30.2553 44.3782 30.5991 41.4991L26.6276 41.0202ZM25.7518 46.8373C25.7044 47.0346 25.6584 47.1687 25.6226 47.2533C25.586 47.3397 25.5714 47.3476 25.5987 47.3131C25.629 47.2746 25.7145 47.1803 25.871 47.0974C26.0358 47.0101 26.215 46.9698 26.3774 46.9698V50.9893C27.3938 50.9893 28.2004 50.4851 28.7327 49.8107C29.21 49.2059 29.4752 48.4672 29.6402 47.7804L25.7518 46.8373ZM26.3774 46.9698C25.863 46.9698 25.1028 46.7886 24.0477 46.2254L22.171 49.775C23.5621 50.5176 24.9806 50.9893 26.3774 50.9893V46.9698ZM24.1136 46.2622C23.0634 45.6494 22.1725 44.9655 21.4276 44.217L18.5992 47.0592C19.6124 48.0774 20.7856 48.9682 22.1051 49.7381L24.1136 46.2622ZM21.4876 44.2801C21.1282 43.886 20.9193 43.5935 20.8093 43.3976C20.6911 43.1871 20.752 43.2039 20.752 43.3912H16.752C16.752 44.1547 17.0232 44.834 17.3254 45.3724C17.6359 45.9255 18.0577 46.4684 18.539 46.9961L21.4876 44.2801ZM20.752 43.3912C20.752 43.0493 20.8954 41.9874 21.288 39.9756L17.3627 39.2022C16.9908 41.1079 16.752 42.581 16.752 43.3912H20.752ZM21.2804 40.0126C21.7001 38.0571 22.1582 35.9476 22.6545 33.684L18.7482 32.8191C18.2508 35.0877 17.7915 37.203 17.3703 39.1651L21.2804 40.0126ZM22.6496 33.7057C24.3669 26.2663 25.4072 21.0483 25.7278 18.1488L21.7522 17.7049C21.4613 20.3362 20.4758 25.3346 18.7531 32.7975L22.6496 33.7057ZM23.5975 15.9223L21.1895 16.0951L21.4745 20.1043L23.8825 19.9315L23.5975 15.9223ZM22.2635 16.3213C21.8624 16.1091 21.5262 15.8021 21.2457 15.3558L17.8637 17.5021C18.5006 18.5154 19.3493 19.3222 20.4005 19.8782L22.2635 16.3213ZM21.3071 15.4605C21.0504 14.9914 20.924 14.4991 20.924 13.9517H16.924C16.924 15.171 17.2181 16.3303 17.8022 17.3975L21.3071 15.4605ZM20.924 13.9517C20.924 13.0021 21.2662 12.1359 22.1156 11.2824L19.2872 8.44016C17.7668 9.96794 16.924 11.8286 16.924 13.9517H20.924ZM20.7306 11.8707C25.9782 11.7938 30.5441 11.6782 34.4258 11.5237L34.2676 7.50746C30.4284 7.66026 25.8974 7.77508 20.6722 7.85179L20.7306 11.8707ZM34.425 11.5237C38.3719 11.3682 41.8111 11.0755 44.7314 10.6393L44.1433 6.66354C41.4067 7.07229 38.1188 7.35566 34.2683 7.50739L34.425 11.5237ZM63.1052 22.9967L61.1303 22.6792L60.8839 24.2266L62.3174 24.8439L63.1052 22.9967ZM63.3345 16.4866L61.3942 16.974L61.4128 17.0489L61.4372 17.1221L63.3345 16.4866ZM60.8692 17.2355L59.3074 15.9801L59.2919 15.9996L59.2768 16.0195L60.8692 17.2355ZM58.9772 20.6922L57.1202 19.9459L57.1146 19.9601L57.1091 19.9745L58.9772 20.6922ZM60.1238 28.1817L58.6687 29.5605L58.6889 29.582L58.7096 29.6029L60.1238 28.1817ZM65.7998 33.0211L64.5804 34.6141L64.5979 34.6276L64.6157 34.6407L65.7998 33.0211ZM69.9853 36.4778L68.5713 37.8989L68.586 37.914L68.6013 37.9288L69.9853 36.4778ZM71.4186 38.8975L73.418 38.8497L73.4173 38.8208L73.416 38.7919L71.4186 38.8975ZM68.896 43.6793L70.2246 45.1814L70.234 45.1731L70.2426 45.1648L68.896 43.6793ZM62.4172 47.4816L61.7029 45.6045L61.6982 45.6062L61.6936 45.608L62.4172 47.4816ZM49.9185 47.7121L49.0543 49.5245L49.0697 49.5319L49.0852 49.539L49.9185 47.7121ZM45.3318 44.6587L43.9402 46.1022L43.952 46.1136L43.964 46.1249L45.3318 44.6587ZM43.4398 41.5476L45.438 41.4603L45.4378 41.4564L43.4398 41.5476ZM45.1025 37.4572L46.4161 38.9727L46.4297 38.9608L46.4431 38.9486L45.1025 37.4572ZM52.8998 36.2474L54.8676 35.8879L54.639 34.6243L53.4018 34.302L52.8998 36.2474ZM54.1038 41.7205L52.1937 42.3161L52.7565 44.1384L54.5966 43.6682L54.1038 41.7205ZM61.4425 38.7247L62.3876 40.4958L65.1354 39.0153L62.6505 37.123L61.4425 38.7247ZM50.6065 17.1779L52.3728 18.1208L52.3758 18.1151L52.3787 18.1094L50.6065 17.1779ZM55.7665 10.783L57.036 12.336L57.0442 12.3293L57.0522 12.3224L55.7665 10.783ZM71.4186 22.5934L72.6013 24.2141L72.606 24.2107L72.61 24.2074L71.4186 22.5934ZM65.08 23.3142C65.3928 21.3497 65.5639 19.694 65.5639 18.3878H61.5639C61.5639 19.386 61.4291 20.8029 61.1303 22.6792L65.08 23.3142ZM65.5639 18.3878C65.5639 17.488 65.4828 16.6077 65.2319 15.8511L61.4372 17.1221C61.492 17.2873 61.5639 17.6744 61.5639 18.3878H65.5639ZM65.2748 15.9991C65.1957 15.6813 65.061 15.2498 64.798 14.8533C64.527 14.4449 63.9055 13.7855 62.8758 13.7855V17.8049C62.0373 17.8049 61.5878 17.2608 61.4698 17.0828C61.3596 16.9168 61.3586 16.831 61.3942 16.974L65.2748 15.9991ZM62.8758 13.7855C62.0269 13.7855 61.3138 14.138 60.7817 14.5199C60.2436 14.9062 59.7544 15.4187 59.3074 15.9801L62.4309 18.491C62.7484 18.0922 62.9759 17.8845 63.1067 17.7907C63.2434 17.6925 63.1515 17.8049 62.8758 17.8049V13.7855ZM59.2768 16.0195C58.4226 17.149 57.7092 18.4662 57.1202 19.9459L60.8342 21.4386C61.3154 20.2297 61.8633 19.2425 62.4615 18.4516L59.2768 16.0195ZM57.1091 19.9745C56.5534 21.4347 56.2318 22.8551 56.2318 24.2065H60.2318C60.2318 23.4839 60.4071 22.5615 60.8453 21.41L57.1091 19.9745ZM56.2318 24.2065C56.2318 26.2044 57.2028 27.9982 58.6687 29.5605L61.579 26.8031C60.5222 25.6767 60.2318 24.8205 60.2318 24.2065H56.2318ZM58.7096 29.6029C60.0982 30.9981 62.068 32.672 64.5804 34.6141L67.0193 31.4282C64.5628 29.5294 62.7486 27.9771 61.538 26.7607L58.7096 29.6029ZM64.6157 34.6407C66.46 36.0023 67.76 37.0842 68.5713 37.8989L71.3993 35.0567C70.3753 34.0279 68.8853 32.8053 66.984 31.4016L64.6157 34.6407ZM68.6013 37.9288C68.9733 38.2869 69.1926 38.5699 69.3126 38.7732C69.432 38.9738 69.4233 39.0433 69.4213 39.0031L73.416 38.7919C73.3366 37.2852 72.402 36.0215 71.3693 35.0269L68.6013 37.9288ZM69.4193 38.9453C69.438 39.7536 69.038 40.8307 67.5486 42.1938L70.2426 45.1648C72.194 43.3785 73.4753 41.2676 73.418 38.8497L69.4193 38.9453ZM67.5673 42.1772C66.0611 43.5224 64.1222 44.6749 61.7029 45.6045L63.1314 49.3588C65.9104 48.2911 68.2906 46.9088 70.2246 45.1814L67.5673 42.1772ZM61.6936 45.608C59.3102 46.5375 57.1686 46.9698 55.2505 46.9698V50.9893C57.7662 50.9893 60.4024 50.423 63.1407 49.3552L61.6936 45.608ZM55.2505 46.9698C53.8638 46.9698 52.37 46.6304 50.7518 45.8851L49.0852 49.539C51.1364 50.4837 53.1973 50.9893 55.2505 50.9893V46.9698ZM50.7828 45.8997C49.0947 45.0869 47.7457 44.1779 46.6997 43.1925L43.964 46.1249C45.3642 47.444 47.073 48.5706 49.0543 49.5245L50.7828 45.8997ZM46.7234 43.2152C46.188 42.694 45.8478 42.2684 45.6481 41.94C45.4463 41.6082 45.4379 41.4586 45.438 41.4603L41.4418 41.635C41.5154 43.3368 42.6505 44.8466 43.9402 46.1022L46.7234 43.2152ZM45.4378 41.4564C45.3868 40.3285 45.7278 39.5751 46.4161 38.9727L43.789 35.9418C42.1074 37.4134 41.34 39.3869 41.4419 41.6389L45.4378 41.4564ZM46.4431 38.9486C47.1764 38.2831 48.2426 37.8538 49.8612 37.8538V33.8344C47.5046 33.8344 45.3984 34.4805 43.762 35.9658L46.4431 38.9486ZM49.8612 37.8538C50.6738 37.8538 51.518 37.9635 52.3979 38.1928L53.4018 34.302C52.2177 33.9935 51.0361 33.8344 49.8612 33.8344V37.8538ZM50.9321 36.6069C51.3922 39.15 51.8111 41.0774 52.1937 42.3161L56.014 41.1248C55.7086 40.136 55.3248 38.4146 54.8676 35.8879L50.9321 36.6069ZM54.5966 43.6682C57.0464 43.0424 59.6457 41.9733 62.3876 40.4958L60.4974 36.9536C57.9646 38.3183 55.6715 39.2464 53.611 39.7727L54.5966 43.6682ZM62.6505 37.123C58.4436 33.9192 55.3772 31.1314 53.3814 28.7573C51.3337 26.3213 50.6572 24.607 50.6572 23.5152H46.6572C46.6572 26.0722 48.1116 28.7171 50.3256 31.351C52.5917 34.0467 55.918 37.0392 60.2345 40.3264L62.6505 37.123ZM50.6572 23.5152C50.6572 22.2136 51.147 20.4393 52.3728 18.1208L48.8403 16.2351C47.4669 18.8328 46.6572 21.2833 46.6572 23.5152H50.6572ZM52.3787 18.1094C53.5554 15.8489 55.1055 13.9295 57.036 12.336L54.497 9.23011C52.1466 11.1701 50.2567 13.514 48.8343 16.2464L52.3787 18.1094ZM57.0522 12.3224C58.9002 10.7639 60.7138 10.085 62.5318 10.085V6.06558C59.6104 6.06558 56.9137 7.1918 54.4808 9.24364L57.0522 12.3224ZM62.5318 10.085C63.8084 10.085 65.1082 10.5086 66.4649 11.4915L68.804 8.23102C66.874 6.83266 64.7717 6.06558 62.5318 6.06558V10.085ZM66.4649 11.4915C67.8907 12.5243 69.042 13.7817 69.9326 15.2737L73.3626 13.2057C72.19 11.2411 70.6653 9.57953 68.804 8.23102L66.4649 11.4915ZM69.9326 15.2737C70.8406 16.7941 71.196 18.0505 71.196 19.0791H75.196C75.196 17.1119 74.5193 15.1421 73.3626 13.2057L69.9326 15.2737ZM71.196 19.0791C71.196 19.8906 70.9126 20.4681 70.2266 20.9794L72.61 24.2074C74.294 22.952 75.196 21.1866 75.196 19.0791H71.196ZM70.236 20.9728C69.4993 21.5157 68.5047 21.8511 67.1186 21.8511V25.8706C69.1726 25.8706 71.0446 25.3611 72.6013 24.2141L70.236 20.9728ZM67.1186 21.8511C66.0746 21.8511 65.004 21.6279 63.893 21.1495L62.3174 24.8439C63.882 25.5177 65.4868 25.8706 67.1186 25.8706V21.8511Z" fill="#FFBB37"/>
</g>
<path d="M29.4839 50.4424L10.4139 38.2611L7.49871 40.9058L26.5688 53.0872L29.4839 50.4424Z" fill="#333339"/>
<path d="M85.5789 14.4958L62.8855 0L54 8.06116L76.6934 22.557L85.5789 14.4958Z" fill="#333339"/>
</svg>
