<svg width="26" height="36" viewBox="0 0 26 36" fill="none" xmlns="http://www.w3.org/2000/svg">
<path d="M16.76 0.383362C-8.76545 13.3697 5.21275 33.1496 25.6752 32.7205C10.2849 22.7576 10.9748 7.17315 16.76 0.383362Z" fill="#FFBB37"/>
<path d="M18.8158 8.53491L19.6606 10.8518H22.3948L20.1828 12.2837L21.0277 14.6006L18.8158 13.1687L16.6039 14.6006L17.4487 12.2837L15.2368 10.8518H17.9709L18.8158 8.53491Z" fill="#FFBB37"/>
<path d="M5.81582 27.4337L6.50709 29.3293H8.74411L6.9343 30.5009L7.62556 32.3965L5.81582 31.2249L4.00607 32.3965L4.69733 30.5009L2.88757 29.3293H5.12456L5.81582 27.4337Z" fill="#FFBB37"/>
<path d="M5.81582 0.60965L6.50709 2.50527H8.74411L6.9343 3.67683L7.62556 5.57245L5.81582 4.40089L4.00607 5.57245L4.69733 3.67683L2.88757 2.50527H5.12456L5.81582 0.60965Z" fill="#FFBB37"/>
</svg>
