<svg width="78" height="69" viewBox="0 0 78 69" fill="none" xmlns="http://www.w3.org/2000/svg">
<path d="M38.9379 68.2251C60.4428 68.2251 77.8759 52.9524 77.8759 34.1126C77.8759 15.2727 60.4428 0 38.9379 0C17.4331 0 0 15.2727 0 34.1126C0 52.9524 17.4331 68.2251 38.9379 68.2251Z" fill="#F5F5F5"/>
<path d="M36.673 10.7796C37.3904 11.2599 37.919 11.9367 38.2589 12.81C38.6364 13.6396 38.8252 14.5565 38.8252 15.5608C38.8252 16.4341 38.6742 17.3074 38.3721 18.1807C38.0701 19.0539 37.6736 19.7744 37.1828 20.342C32.8783 20.4294 28.8194 20.6477 25.0058 20.997C24.817 21.9139 24.4205 23.9443 23.8164 27.0881C23.7409 27.4811 23.4955 28.8565 23.0801 31.2144C27.1202 30.8214 30.3108 30.2974 32.6518 29.6425C33.407 30.1664 33.9733 30.8651 34.3509 31.7384C34.7662 32.568 34.9739 33.4849 34.9739 34.4892C34.9739 35.4061 34.804 36.2794 34.4642 37.109C34.1621 37.895 33.7279 38.5281 33.1615 39.0084C32.4441 39.0957 31.7267 39.1612 31.0093 39.2049C30.3297 39.2486 29.6689 39.2922 29.027 39.3359L21.9474 39.9254C21.6453 42.1522 21.3433 44.7939 21.0412 47.8504C20.7014 51.1252 20.3993 53.4176 20.135 54.7275C19.8707 55.9938 19.4365 56.6269 18.8324 56.6269C17.8884 56.6269 16.8123 56.2557 15.6041 55.5134C14.4336 54.7275 13.4141 53.8324 12.5457 52.8281C11.715 51.7802 11.2996 50.9287 11.2996 50.2738C11.2996 49.6188 11.4884 48.1779 11.866 45.951C12.2814 43.7241 12.7344 41.3226 13.2253 38.7464C14.9244 30.2756 15.925 24.4683 16.2271 21.3245L13.8483 21.521C13.1309 21.0843 12.5457 20.4512 12.0926 19.6216C11.6772 18.7483 11.4696 17.8095 11.4696 16.8052C11.4696 15.0587 12.0548 13.5086 13.2253 12.155C18.3981 12.0677 22.8913 11.9367 26.7049 11.762C30.5562 11.5874 33.8789 11.2599 36.673 10.7796ZM55.1141 27.0881C55.4161 24.9049 55.5672 23.1584 55.5672 21.8484C55.5672 20.9315 55.4917 20.211 55.3406 19.6871C55.2274 19.1631 55.0763 18.9011 54.8875 18.9011C54.3212 18.9011 53.6604 19.4469 52.9052 20.5385C52.1878 21.6301 51.5648 22.94 51.0362 24.4683C50.5454 25.9529 50.2999 27.2846 50.2999 28.4635C50.2999 29.9481 50.9229 31.4545 52.169 32.9828C53.4527 34.4674 55.3218 36.3012 57.776 38.4845C59.6261 40.0564 61.0043 41.3663 61.9105 42.4142C62.8167 43.4185 63.2886 44.3354 63.3264 45.1651C63.3642 46.9989 62.5335 48.811 60.8344 50.6012C59.1353 52.3478 57.0019 53.7887 54.4344 54.924C51.9047 56.0592 49.5448 56.6269 47.3548 56.6269C45.6557 56.6269 43.9 56.1466 42.0876 55.186C40.2752 54.1817 38.7649 53.0246 37.5566 51.7147C36.3484 50.3611 35.7254 49.1821 35.6876 48.1779C35.6121 46.2567 36.1596 44.7066 37.3301 43.5277C38.5006 42.3051 40.0675 41.6938 42.0309 41.6938C43.0126 41.6938 44.0132 41.8466 45.0327 42.1522C45.4858 45.0341 45.8823 47.1081 46.2221 48.3744C48.4498 47.7194 50.8663 46.5841 53.4716 44.9686C45.0516 37.5893 40.8416 31.8257 40.8416 27.6776C40.8416 25.669 41.4834 23.2675 42.7672 20.473C44.051 17.6349 45.7501 15.2115 47.8646 13.203C49.979 11.1507 52.2067 10.1246 54.5477 10.1246C56.2846 10.1246 57.9648 10.8014 59.5883 12.155C61.2119 13.5086 62.5335 15.1678 63.5529 17.1327C64.5724 19.0976 65.0821 20.9315 65.0821 22.6344C65.0821 24.2936 64.4969 25.6254 63.3264 26.6297C62.1937 27.5903 60.7777 28.0706 59.0786 28.0706C57.7571 28.0706 56.4356 27.7431 55.1141 27.0881Z" fill="#FFBB37"/>
<path d="M36.673 10.7796L37.5598 9.00827L37.0245 8.64995L36.4128 8.75508L36.673 10.7796ZM38.2588 12.81L36.6448 13.6499L36.6672 13.7074L36.6926 13.7632L38.2588 12.81ZM37.1827 20.342L37.2138 22.3884L37.9286 22.374L38.4342 21.7893L37.1827 20.342ZM25.0058 20.997L24.866 18.9566L23.5822 19.0742L23.284 20.5229L25.0058 20.997ZM23.0801 31.2144L21.3458 30.8059L20.8742 33.4829L23.2284 33.2539L23.0801 31.2144ZM32.6518 29.6425L33.5624 27.8874L32.9405 27.4559L32.2356 27.6531L32.6518 29.6425ZM34.3509 31.7384L32.7678 32.6537L32.792 32.7097L32.8192 32.7638L34.3509 31.7384ZM34.4642 37.109L32.8646 36.2328L32.8555 36.2552L32.8468 36.2778L34.4642 37.109ZM33.1615 39.0084L33.3468 41.0439L33.8225 40.986L34.2082 40.6589L33.1615 39.0084ZM31.0093 39.2049L30.9163 37.161L30.9111 37.1613L31.0093 39.2049ZM29.027 39.3359L28.9231 37.2927L28.9115 37.2934L28.8999 37.2944L29.027 39.3359ZM21.9474 39.9254L21.8202 37.8839L20.4169 38.0007L20.1988 39.6082L21.9474 39.9254ZM21.0412 47.8504L22.7985 48.0942L22.7991 48.0885L22.7997 48.0828L21.0412 47.8504ZM20.135 54.7275L21.8555 55.2077L21.8571 55.2002L21.8586 55.1926L20.135 54.7275ZM15.604 55.5134L14.7153 57.2835L14.7442 57.3029L14.7737 57.3209L15.604 55.5134ZM12.5456 52.8281L11.2409 54.2112L11.2669 54.2439L11.2941 54.2754L12.5456 52.8281ZM11.866 45.951L10.1359 45.5195L10.1324 45.5383L10.1291 45.5572L11.866 45.951ZM13.2253 38.7464L11.5012 38.2839L11.4989 38.295L11.4969 38.306L13.2253 38.7464ZM16.227 21.3245L17.9861 21.5505L18.2208 19.1078L16.1009 19.2829L16.227 21.3245ZM13.8483 21.521L13.0239 23.3322L13.4708 23.6041L13.9744 23.5625L13.8483 21.521ZM12.0925 19.6216L10.5417 20.608L10.5675 20.6622L10.5961 20.7145L12.0925 19.6216ZM13.2253 12.155L13.1994 10.1085L12.4815 10.1206L11.9738 10.7078L13.2253 12.155ZM26.7049 11.762L26.6355 9.71685H26.6349L26.7049 11.762ZM35.7862 12.5509C36.1832 12.8167 36.4573 13.1679 36.6448 13.6499L39.8728 11.9701C39.3807 10.7055 38.5976 9.70307 37.5598 9.00827L35.7862 12.5509ZM36.6926 13.7632C36.9269 14.2782 37.0553 14.8644 37.0553 15.5608H40.5951C40.5951 14.2486 40.3459 13.001 39.825 11.8567L36.6926 13.7632ZM37.0553 15.5608C37.0553 16.1542 36.9537 16.7702 36.7288 17.4205L40.0154 18.9408C40.3946 17.8445 40.5951 16.714 40.5951 15.5608H37.0553ZM36.7288 17.4205C36.5006 18.08 36.226 18.5538 35.9312 18.8948L38.4342 21.7893C39.1211 20.9949 39.6394 20.0279 40.0154 18.9408L36.7288 17.4205ZM37.1517 18.2956C32.8154 18.3836 28.7199 18.6037 24.866 18.9566L25.1455 23.0373C28.9188 22.6917 32.9412 22.4752 37.2138 22.3884L37.1517 18.2956ZM23.284 20.5229C23.0915 21.4579 22.692 23.5043 22.0886 26.6441L25.5441 27.5321C26.149 24.3844 26.5425 22.37 26.7276 21.4711L23.284 20.5229ZM22.0886 26.6441C22.0087 27.0597 21.7592 28.459 21.3458 30.8059L24.8144 31.6229C25.2317 29.254 25.473 27.9025 25.5441 27.5321L22.0886 26.6441ZM23.2284 33.2539C27.3068 32.8572 30.5996 32.3224 33.0679 31.6319L32.2356 27.6531C30.0219 28.2724 26.9336 28.7856 22.9317 29.1749L23.2284 33.2539ZM31.7412 31.3976C32.2207 31.7303 32.5475 32.144 32.7678 32.6537L35.934 30.823C35.3991 29.5861 34.5931 28.6026 33.5624 27.8874L31.7412 31.3976ZM32.8192 32.7638C33.0709 33.2667 33.204 33.8271 33.204 34.4892H36.7438C36.7438 33.1426 36.4615 31.8692 35.8826 30.7129L32.8192 32.7638ZM33.204 34.4892C33.204 35.1027 33.0924 35.6768 32.8646 36.2328L36.0637 37.9853C36.5155 36.882 36.7438 35.7095 36.7438 34.4892H33.204ZM32.8468 36.2778C32.6623 36.7577 32.4177 37.1011 32.1148 37.3579L34.2082 40.6589C35.038 39.9552 35.6619 39.0322 36.0815 37.9403L32.8468 36.2778ZM32.9762 36.9729C32.2894 37.0565 31.6028 37.1192 30.9163 37.161L31.1023 41.2489C31.8507 41.2033 32.5988 41.135 33.3468 41.0439L32.9762 36.9729ZM30.9111 37.1613C30.2297 37.2051 29.5669 37.2489 28.9231 37.2927L29.1309 41.3791C29.7708 41.3356 30.4296 41.2921 31.1075 41.2485L30.9111 37.1613ZM28.8999 37.2944L21.8202 37.8839L22.0745 41.9669L29.1541 41.3774L28.8999 37.2944ZM20.1988 39.6082C19.8919 41.8713 19.5866 44.5426 19.2827 47.618L22.7997 48.0828C23.0998 45.0453 23.3988 42.4332 23.6959 40.2425L20.1988 39.6082ZM19.2839 47.6066C18.9439 50.8829 18.6512 53.0741 18.4114 54.2624L21.8586 55.1926C22.1474 53.7611 22.4588 51.3675 22.7985 48.0942L19.2839 47.6066ZM18.4145 54.2473C18.3657 54.4812 18.3169 54.6466 18.2762 54.7574C18.2347 54.8703 18.2115 54.8989 18.2244 54.8802C18.2399 54.8576 18.3031 54.7739 18.428 54.6977C18.5604 54.617 18.7044 54.5801 18.8324 54.5801V58.6736C19.7633 58.6736 20.5042 58.1437 20.9978 57.4239C21.4429 56.7749 21.6957 55.9732 21.8555 55.2077L18.4145 54.2473ZM18.8324 54.5801C18.2788 54.5801 17.494 54.3569 16.4344 53.706L14.7737 57.3209C16.1305 58.1546 17.498 58.6736 18.8324 58.6736V54.5801ZM16.4928 53.7434C15.4414 53.0375 14.5468 52.2478 13.7971 51.3808L11.2941 54.2754C12.2813 55.417 13.4256 56.4175 14.7153 57.2835L16.4928 53.7434ZM13.8503 51.445C13.4889 50.9891 13.2716 50.6418 13.1527 50.3979C13.0265 50.1391 13.0695 50.1171 13.0695 50.2738H9.52972C9.52972 51.0854 9.78046 51.8165 10.0695 52.4092C10.3659 53.0168 10.7717 53.6192 11.2409 54.2112L13.8503 51.445ZM13.0695 50.2738C13.0695 49.8573 13.2161 48.6257 13.6028 46.3448L10.1291 45.5572C9.76076 47.73 9.52972 49.3803 9.52972 50.2738H13.0695ZM13.5961 46.3825C14.0108 44.1591 14.4633 41.7606 14.9537 39.1868L11.4969 38.306C11.0055 40.8847 10.5518 43.2892 10.1359 45.5195L13.5961 46.3825ZM14.9494 39.2089C16.6461 30.75 17.6709 24.8309 17.9861 21.5505L14.4679 21.0984C14.179 24.1057 13.2026 29.8012 11.5012 38.2839L14.9494 39.2089ZM16.1009 19.2829L13.7222 19.4794L13.9744 23.5625L16.3531 23.366L16.1009 19.2829ZM14.6726 19.7097C14.2429 19.4482 13.8844 19.0696 13.5889 18.5286L10.5961 20.7145C11.2069 21.8328 12.0189 22.7204 13.0239 23.3322L14.6726 19.7097ZM13.6433 18.6352C13.3729 18.0665 13.2394 17.4674 13.2394 16.8052H9.69964C9.69964 18.1517 9.98152 19.4301 10.5417 20.608L13.6433 18.6352ZM13.2394 16.8052C13.2394 15.6563 13.6032 14.6126 14.4768 13.6023L11.9738 10.7078C10.5064 12.4046 9.69964 14.4611 9.69964 16.8052H13.2394ZM13.2511 14.2016C18.4339 14.114 22.9425 13.9827 26.7749 13.8072L26.6349 9.71685C22.8401 9.89069 18.3623 10.0213 13.1994 10.1085L13.2511 14.2016ZM26.7742 13.8072C30.6682 13.6307 34.0579 13.2984 36.9332 12.8041L36.4128 8.75508C33.7 9.2214 30.4442 9.54411 26.6355 9.71685L26.7742 13.8072ZM55.1141 27.0881L53.3664 26.7647L53.1484 28.3407L54.4169 28.9694L55.1141 27.0881ZM55.3406 19.6871L53.6236 20.1835L53.64 20.2597L53.6616 20.3343L55.3406 19.6871ZM52.9052 20.5385L51.5232 19.2599L51.5094 19.2798L51.4961 19.3L52.9052 20.5385ZM51.0362 24.4683L49.3929 23.7081L49.3879 23.7227L49.3831 23.7373L51.0362 24.4683ZM52.1689 32.9828L50.8812 34.3869L50.899 34.4088L50.9174 34.43L52.1689 32.9828ZM57.776 38.4845L56.6969 40.1068L56.7122 40.1205L56.7282 40.1339L57.776 38.4845ZM61.9105 42.4142L60.6591 43.8615L60.6721 43.8769L60.6857 43.892L61.9105 42.4142ZM63.3264 45.1651L65.0957 45.1163L65.0951 45.0869L65.0939 45.0575L63.3264 45.1651ZM60.8343 50.6012L62.0102 52.131L62.0184 52.1227L62.0267 52.1142L60.8343 50.6012ZM54.4344 54.924L53.8023 53.0122L53.7983 53.014L53.7941 53.0159L54.4344 54.924ZM42.0876 55.186L41.3228 57.0317L41.3364 57.0393L41.3502 57.0466L42.0876 55.186ZM37.5566 51.7147L36.3251 53.1847L36.3355 53.1964L36.3461 53.2078L37.5566 51.7147ZM35.6876 48.1779L37.4558 48.089L37.4557 48.085L35.6876 48.1779ZM37.3301 43.5277L38.4925 45.071L38.5046 45.059L38.5164 45.0465L37.3301 43.5277ZM45.0327 42.1522L46.774 41.7861L46.5717 40.4992L45.4769 40.171L45.0327 42.1522ZM46.2221 48.3744L44.5317 48.981L45.0297 50.8368L46.6582 50.358L46.2221 48.3744ZM53.4716 44.9686L54.3081 46.7724L56.7394 45.2645L54.5406 43.3373L53.4716 44.9686ZM42.7672 20.473L44.3303 21.4333L44.3329 21.4275L44.3355 21.4217L42.7672 20.473ZM47.8645 13.203L48.988 14.7845L48.9952 14.7777L49.0023 14.7707L47.8645 13.203ZM63.3264 26.6297L64.373 28.2802L64.3771 28.2768L64.3812 28.2734L63.3264 26.6297ZM56.8615 27.4115C57.1701 25.1834 57.337 23.3152 57.337 21.8484H53.7973C53.7973 23.0015 53.6623 24.6265 53.3664 26.7647L56.8615 27.4115ZM57.337 21.8484C57.337 20.8365 57.2574 19.8649 57.0196 19.0398L53.6616 20.3343C53.7258 20.5571 53.7973 21.0264 53.7973 21.8484H57.337ZM57.058 19.1907C56.9819 18.8397 56.8556 18.3797 56.6149 17.9623C56.3677 17.5327 55.8086 16.8544 54.8875 16.8544V20.9479C54.1553 20.9479 53.7663 20.4005 53.6698 20.2329C53.5802 20.0775 53.5862 20.0105 53.6236 20.1835L57.058 19.1907ZM54.8875 16.8544C54.1068 16.8544 53.4438 17.2276 52.9384 17.645C52.4278 18.0667 51.958 18.6313 51.5232 19.2599L54.2873 21.8171C54.6076 21.3541 54.8458 21.1 54.9959 20.976C55.1514 20.8476 55.102 20.9479 54.8875 20.9479V16.8544ZM51.4961 19.3C50.6654 20.564 49.9692 22.042 49.3929 23.7081L52.6796 25.2284C53.1605 23.8381 53.7102 22.6962 54.3144 21.777L51.4961 19.3ZM49.3831 23.7373C48.8402 25.3791 48.53 26.9644 48.53 28.4635H52.0698C52.0698 27.6048 52.2505 26.5266 52.6894 25.1992L49.3831 23.7373ZM48.53 28.4635C48.53 30.6528 49.4542 32.6367 50.8812 34.3869L53.4567 31.5787C52.3917 30.2724 52.0698 29.2434 52.0698 28.4635H48.53ZM50.9174 34.43C52.28 36.0057 54.2178 37.9015 56.6969 40.1068L58.855 36.8621C56.4255 34.701 54.6255 32.929 53.4205 31.5355L50.9174 34.43ZM56.7282 40.1339C58.5529 41.6843 59.8473 42.9226 60.6591 43.8615L63.1618 40.967C62.1618 39.8099 60.6992 38.4284 58.8237 36.835L56.7282 40.1339ZM60.6857 43.892C61.4898 44.7829 61.5571 45.2342 61.5588 45.2726L65.0939 45.0575C65.0202 43.4366 64.1435 42.0541 63.1352 40.9365L60.6857 43.892ZM61.5571 45.2138C61.5777 46.228 61.137 47.5136 59.6426 49.0883L62.0267 52.1142C63.9299 50.1084 65.1506 47.7699 65.0957 45.1163L61.5571 45.2138ZM59.6585 49.0715C58.1488 50.6234 56.2108 51.9473 53.8023 53.0122L55.0665 56.8358C57.7931 55.6301 60.1217 54.0722 62.0102 52.131L59.6585 49.0715ZM53.7941 53.0159C51.4214 54.0807 49.2803 54.5801 47.3548 54.5801V58.6736C49.8092 58.6736 52.3879 58.0378 55.0747 56.8321L53.7941 53.0159ZM47.3548 54.5801C45.9506 54.5801 44.4458 54.1843 42.825 53.3253L41.3502 57.0466C43.3542 58.1088 45.3608 58.6736 47.3548 58.6736V54.5801ZM42.8524 53.3401C41.1697 52.4078 39.8186 51.3615 38.7672 50.2215L36.3461 53.2078C37.7111 54.6877 39.3807 55.9556 41.3228 57.0317L42.8524 53.3401ZM38.7881 50.2446C37.6388 48.9571 37.4623 48.2598 37.4558 48.089L33.9194 48.2668C33.9885 50.1046 35.0579 51.7651 36.3251 53.1847L38.7881 50.2446ZM37.4557 48.085C37.4027 46.7362 37.7615 45.8074 38.4925 45.071L36.1676 41.9843C34.5577 43.6058 33.8215 45.7771 33.9195 48.2708L37.4557 48.085ZM38.5164 45.0465C39.2873 44.2414 40.3941 43.7405 42.0309 43.7405V39.647C39.741 39.647 37.7139 40.3687 36.1437 42.0088L38.5164 45.0465ZM42.0309 43.7405C42.8523 43.7405 43.7036 43.8682 44.5885 44.1335L45.4769 40.171C44.3228 39.825 43.173 39.647 42.0309 39.647V43.7405ZM43.2913 42.5184C43.7457 45.4085 44.1577 47.5875 44.5317 48.981L47.9124 47.7677C47.6068 46.6288 47.2258 44.6596 46.774 41.7861L43.2913 42.5184ZM46.6582 50.358C49.0582 49.6524 51.6101 48.4453 54.3081 46.7724L52.6352 43.1648C50.1225 44.723 47.8414 45.7864 45.786 46.3907L46.6582 50.358ZM54.5406 43.3373C50.3791 39.6902 47.3366 36.5087 45.3512 33.7906C43.3198 31.0096 42.6115 29.0055 42.6115 27.6776H39.0716C39.0716 30.4977 40.4683 33.4495 42.647 36.4322C44.8716 39.4777 48.1441 42.8677 52.4026 46.5998L54.5406 43.3373ZM42.6115 27.6776C42.6115 26.1427 43.1118 24.0855 44.3303 21.4333L41.2042 19.5128C39.8551 22.4495 39.0716 25.1954 39.0716 27.6776H42.6115ZM44.3355 21.4217C45.5106 18.8238 47.0593 16.6166 48.988 14.7845L46.7411 11.6214C44.4409 13.8064 42.5914 16.4459 41.1989 19.5244L44.3355 21.4217ZM49.0023 14.7707C50.858 12.9698 52.695 12.1714 54.5477 12.1714V8.07788C51.7185 8.07788 49.1 9.33172 46.7267 11.6352L49.0023 14.7707ZM54.5477 12.1714C55.8584 12.1714 57.1836 12.6733 58.5535 13.8153L60.6237 10.4948C58.7459 8.92953 56.7111 8.07788 54.5477 8.07788V12.1714ZM58.5535 13.8153C59.9842 15.0081 61.1405 16.4615 62.0355 18.1858L65.0709 16.0797C63.9264 13.8742 62.4397 12.0091 60.6237 10.4948L58.5535 13.8153ZM62.0355 18.1858C62.9447 19.9389 63.3122 21.4094 63.3122 22.6344H66.852C66.852 20.4536 66.2001 18.2563 65.0709 16.0797L62.0355 18.1858ZM63.3122 22.6344C63.3122 23.6337 63.0007 24.3605 62.2721 24.9859L64.3812 28.2734C65.993 26.8903 66.852 24.9536 66.852 22.6344H63.3122ZM62.2798 24.9792C61.5099 25.6321 60.4821 26.0238 59.0786 26.0238V30.1173C61.0733 30.1173 62.8774 29.5484 64.373 28.2802L62.2798 24.9792ZM59.0786 26.0238C58.0172 26.0238 56.9323 25.7623 55.8113 25.2069L54.4169 28.9694C55.9392 29.7239 57.4969 30.1173 59.0786 30.1173V26.0238Z" fill="black"/>
<path d="M27.6686 59.2118L9.13988 45.5911L4.42748 50.5111L22.9562 64.1318L27.6686 59.2118Z" fill="#F5F5F5"/>
<path d="M73.0363 19.4608L52.9537 4.69775L45.0904 12.9075L65.173 27.6705L73.0363 19.4608Z" fill="#F5F5F5"/>
</svg>
