<svg width="29" height="30" viewBox="0 0 29 30" fill="none" xmlns="http://www.w3.org/2000/svg">
<path d="M2 19.9639C2 9.03246 9.55351 13.0707 11.831 14.7915C14.7423 14.1372 18.3507 14.5223 20.6261 17.2697C20.5855 15.5862 19.6471 12.6592 19.6471 10.3156C19.6471 9.45135 18.9876 8.93644 18.0256 8.65214C17.7208 8.56204 17.3855 8.49511 17.0312 8.44755C14.7062 8.13548 12.7086 6.07799 13.2909 3.80552C13.7 2.20905 15.2397 1.21919 16.8173 1.69608C17.8997 2.0233 19.2582 2.45533 21.1176 2.99618C22.2222 3.31747 25.9818 14.5019 26.8325 23.2023C26.9842 24.7539 25.8081 26.0754 24.2574 26.2352L7.63725 27.9487C5.75817 28.2814 2 27.1502 2 19.9639Z" fill="#EDC9AE"/>
<path d="M12.049 14.962C10.0882 13.3698 2 8.65214 2 19.9639C2 27.1502 5.75817 28.2814 7.63725 27.9487L24.2574 26.2352C25.8081 26.0754 26.9842 24.7539 26.8325 23.2023C25.9818 14.5019 22.2222 3.31747 21.1176 2.99618C19.2582 2.45533 17.8997 2.0233 16.8173 1.69608C15.2397 1.21919 13.7 2.20905 13.2909 3.80552V3.80552C12.7086 6.07799 14.7062 8.13548 17.0312 8.44755C17.3855 8.49511 17.7208 8.56204 18.0256 8.65214M20.6275 17.3795C20.6275 15.716 19.6471 12.7111 19.6471 10.3156C19.6471 9.45135 18.9876 8.93644 18.0256 8.65214M7.63725 16.9696C9.84314 14.308 18.8367 12.3118 21.8529 19.2985M18.0256 8.65214L18.3793 5.79032" stroke="#333339" stroke-width="3"/>
</svg>
