<svg width="45" height="40" viewBox="0 0 45 40" fill="none" xmlns="http://www.w3.org/2000/svg">
<path d="M15 7.5L15.4138 6.58963L14.8353 6.32667L14.3515 6.73876L15 7.5ZM26 12.5L25.5862 13.4104L26.1481 13.6658L26.6283 13.2779L26 12.5ZM39.9944 2.10579C40.0528 1.5566 39.655 1.06404 39.1058 1.00561L30.1563 0.0535366C29.6071 -0.00488743 29.1145 0.392954 29.0561 0.942139C28.9977 1.49133 29.3955 1.98389 29.9447 2.04231L37.8998 2.8886L37.0535 10.8437C36.9951 11.3929 37.393 11.8855 37.9421 11.9439C38.4913 12.0023 38.9839 11.6045 39.0423 11.0553L39.9944 2.10579ZM2.14847 19.7612L15.6485 8.26124L14.3515 6.73876L0.851534 18.2388L2.14847 19.7612ZM14.5862 8.41037L25.5862 13.4104L26.4138 11.5896L15.4138 6.58963L14.5862 8.41037ZM26.6283 13.2779L39.6283 2.77794L38.3717 1.22206L25.3717 11.7221L26.6283 13.2779Z" fill="black"/>
<rect x="0.5" y="27.5" width="12" height="12" fill="#FFBB37" stroke="black"/>
<rect x="16.5" y="19.5" width="12" height="20" fill="#FFBB37" stroke="black"/>
<rect x="32.5" y="10.5" width="12" height="29" fill="#FFBB37" stroke="black"/>
</svg>
